<?xml version="1.0" standalone="no"?><!DOCTYPE svg PUBLIC "-//W3C//DTD SVG 1.1//EN" "http://www.w3.org/Graphics/SVG/1.1/DTD/svg11.dtd"><svg height="1024" legacy-metrics="false" node-id="1" sillyvg="true" template-height="1024" template-width="1024" version="1.1" viewBox="0 0 1024 1024" width="1024" xmlns="http://www.w3.org/2000/svg" xmlns:xlink="http://www.w3.org/1999/xlink"><defs node-id="147"><linearGradient gradientUnits="userSpaceOnUse" id="未命名的渐变_131" node-id="13" x1="196.31" x2="826.98" y1="679.19" y2="679.19"><stop offset="0" stop-color="#041fb2"></stop><stop offset="0.07" stop-color="#0524b4"></stop><stop offset="0.15" stop-color="#0831b8"></stop><stop offset="0.23" stop-color="#0d47c0"></stop><stop offset="0.32" stop-color="#1367cb"></stop><stop offset="0.41" stop-color="#1c8fda"></stop><stop offset="0.5" stop-color="#26bfeb"></stop><stop offset="0.55" stop-color="#2ee2f7"></stop><stop offset="0.61" stop-color="#2ddef6"></stop><stop offset="0.68" stop-color="#2ad2f2"></stop><stop offset="0.74" stop-color="#26bdec"></stop><stop offset="0.8" stop-color="#1fa0e3"></stop><stop offset="0.86" stop-color="#177bd7"></stop><stop offset="0.93" stop-color="#0d4fca"></stop><stop offset="0.98" stop-color="#0426bd"></stop></linearGradient><radialGradient cx="511.65" cy="679.31" fx="511.65" fy="679.31" gradientUnits="userSpaceOnUse" id="未命名的渐变_144" node-id="29" r="229.41"><stop offset="0" stop-color="#95e2f7"></stop><stop offset="0.25" stop-color="#74d6ea"></stop><stop offset="0.8" stop-color="#21b7c8"></stop><stop offset="0.98" stop-color="#04adbd"></stop></radialGradient><linearGradient gradientUnits="userSpaceOnUse" id="未命名的渐变_169" node-id="34" x1="344.88" x2="679.4" y1="787.97" y2="453.45"><stop offset="0" stop-color="#04adbd"></stop><stop offset="0.13" stop-color="#049abd"></stop><stop offset="0.73" stop-color="#0447bd"></stop><stop offset="1" stop-color="#0426bd"></stop></linearGradient><linearGradient gradientUnits="userSpaceOnUse" id="未命名的渐变_74" node-id="39" x1="344.71" x2="679.58" y1="788.15" y2="453.28"><stop offset="0" stop-color="#4244cf"></stop><stop offset="0.13" stop-color="#3d50d1"></stop><stop offset="0.38" stop-color="#2f6fd5"></stop><stop offset="0.69" stop-color="#19a0dc"></stop><stop offset="1" stop-color="#00d7e3"></stop></linearGradient><linearGradient gradientUnits="userSpaceOnUse" id="未命名的渐变_136" node-id="45" x1="199.3" x2="828.98" y1="583.81" y2="583.81"><stop offset="0" stop-color="#2ee2f7"></stop><stop offset="0.98" stop-color="#0426bd"></stop></linearGradient><linearGradient gradientUnits="userSpaceOnUse" id="未命名的渐变_92" node-id="48" x1="198.8" x2="829.48" y1="583.81" y2="583.81"><stop offset="0" stop-color="#2ee2f7"></stop><stop offset="0.13" stop-color="#31ceef"></stop><stop offset="0.41" stop-color="#389adc"></stop><stop offset="0.8" stop-color="#4447bc"></stop><stop offset="1" stop-color="#4a1aab"></stop></linearGradient><linearGradient gradientUnits="userSpaceOnUse" id="未命名的渐变_347" node-id="54" x1="196.8" x2="827.48" y1="583.81" y2="583.81"><stop offset="0" stop-color="#0924ad"></stop><stop offset="0.48" stop-color="#00e1ed"></stop><stop offset="0.55" stop-color="#1fb6e9"></stop><stop offset="0.67" stop-color="#4d76e4"></stop><stop offset="0.78" stop-color="#7143e0"></stop><stop offset="0.87" stop-color="#8b1edd"></stop><stop offset="0.95" stop-color="#9b08db"></stop><stop offset="1" stop-color="#a100da"></stop></linearGradient><linearGradient gradientUnits="userSpaceOnUse" id="未命名的渐变_76" node-id="5" x1="343.43" x2="439.18" y1="336.62" y2="336.62"><stop offset="0" stop-color="#0b00ed"></stop><stop offset="0.34" stop-color="#0a0fd2"></stop><stop offset="0.76" stop-color="#091eb7"></stop><stop offset="1" stop-color="#0924ad"></stop></linearGradient><clipPath id="clip-path" node-id="63"><path d="M 379.08 332.64 L 343.43 352.00 C 360.85 342.52 381.43 338.49 403.52 341.59 L 439.18 322.20 C 417.12 319.14 396.51 323.16 379.08 332.64 Z" fill="#000000" fill-rule="nonzero" node-id="260" stroke="none" target-height="30.79007" target-width="95.75" target-x="343.43" target-y="321.20993"></path></clipPath><linearGradient gradientUnits="userSpaceOnUse" id="未命名的渐变_76-3" node-id="65" x1="364.79" x2="439.18" y1="332.42" y2="332.42"><stop offset="0" stop-color="#0b00ed"></stop><stop offset="0.34" stop-color="#0a0fd2"></stop><stop offset="0.76" stop-color="#091eb7"></stop><stop offset="1" stop-color="#0924ad"></stop></linearGradient><linearGradient gradientUnits="userSpaceOnUse" id="未命名的渐变_80-2" node-id="66" x1="406.24" x2="396.62" y1="341.56" y2="324.9"><stop offset="0" stop-color="#0924ad"></stop><stop offset="1" stop-color="#00e1ed"></stop></linearGradient><linearGradient gradientUnits="userSpaceOnUse" id="未命名的渐变_76-4" node-id="67" x1="346.89" x2="400.44" y1="337.24" y2="337.24"><stop offset="0" stop-color="#0b00ed"></stop><stop offset="0.34" stop-color="#0a0fd2"></stop><stop offset="0.76" stop-color="#091eb7"></stop><stop offset="1" stop-color="#0924ad"></stop></linearGradient><linearGradient gradientUnits="userSpaceOnUse" id="未命名的渐变_80-3" node-id="68" x1="375.75" x2="373.35" y1="338.84" y2="334.68"><stop offset="0" stop-color="#0924ad"></stop><stop offset="1" stop-color="#00e1ed"></stop></linearGradient><linearGradient gradientUnits="userSpaceOnUse" id="未命名的渐变_76-5" node-id="69" x1="343.43" x2="382.55" y1="341.44" y2="341.44"><stop offset="0" stop-color="#0b00ed"></stop><stop offset="0.34" stop-color="#0a0fd2"></stop><stop offset="0.76" stop-color="#091eb7"></stop><stop offset="1" stop-color="#0924ad"></stop></linearGradient><linearGradient gradientUnits="userSpaceOnUse" id="未命名的渐变_80-4" node-id="70" x1="363.42" x2="362.57" y1="342.18" y2="340.7"><stop offset="0" stop-color="#0924ad"></stop><stop offset="1" stop-color="#00e1ed"></stop></linearGradient><linearGradient gradientUnits="userSpaceOnUse" id="未命名的渐变_80" node-id="10" x1="397.28" x2="385.98" y1="346.74" y2="327.18"><stop offset="0" stop-color="#0924ad"></stop><stop offset="1" stop-color="#00e1ed"></stop></linearGradient><linearGradient gradientUnits="userSpaceOnUse" id="未命名的渐变_73" node-id="71" x1="456.98" x2="789.42" y1="418.76" y2="418.76"><stop offset="0" stop-color="#a100da"></stop><stop offset="0.12" stop-color="#9e00da"></stop><stop offset="0.22" stop-color="#9300dc"></stop><stop offset="0.31" stop-color="#8200de"></stop><stop offset="0.4" stop-color="#6900e1"></stop><stop offset="0.49" stop-color="#4900e5"></stop><stop offset="0.57" stop-color="#2200ea"></stop><stop offset="0.61" stop-color="#0b00ed"></stop><stop offset="0.74" stop-color="#0a0fd2"></stop><stop offset="0.91" stop-color="#091eb7"></stop><stop offset="1" stop-color="#0924ad"></stop></linearGradient><linearGradient gradientUnits="userSpaceOnUse" id="未命名的渐变_389" node-id="83" x1="456.86" x2="789.67" y1="418.74" y2="418.74"><stop offset="0" stop-color="#00e1ed"></stop><stop offset="0.01" stop-color="#00daeb"></stop><stop offset="0.08" stop-color="#039ad5"></stop><stop offset="0.14" stop-color="#0667c4"></stop><stop offset="0.19" stop-color="#0842b7"></stop><stop offset="0.23" stop-color="#092cb0"></stop><stop offset="0.26" stop-color="#0924ad"></stop><stop offset="0.55" stop-color="#00e1ed"></stop><stop offset="0.61" stop-color="#1fb6e9"></stop><stop offset="0.72" stop-color="#4d76e4"></stop><stop offset="0.81" stop-color="#7143e0"></stop><stop offset="0.89" stop-color="#8b1edd"></stop><stop offset="0.96" stop-color="#9b08db"></stop><stop offset="1" stop-color="#a100da"></stop></linearGradient><linearGradient gradientUnits="userSpaceOnUse" id="未命名的渐变_71" node-id="98" x1="522.06" x2="522.06" y1="249.13" y2="619.16"><stop offset="0" stop-color="#00fdf5"></stop><stop offset="0.19" stop-color="#01d2ef"></stop><stop offset="0.61" stop-color="#0567e0"></stop><stop offset="1" stop-color="#0800d1"></stop></linearGradient><linearGradient gradientUnits="userSpaceOnUse" id="未命名的渐变_336" node-id="103" x1="622.42" x2="410.89" y1="653.65" y2="287.28"><stop offset="0" stop-color="#6adcf8"></stop><stop offset="0.13" stop-color="#4da8e2"></stop><stop offset="0.26" stop-color="#3177cc"></stop><stop offset="0.38" stop-color="#1d53bd"></stop><stop offset="0.48" stop-color="#103db3"></stop><stop offset="0.54" stop-color="#0c35b0"></stop><stop offset="0.61" stop-color="#0f39b1"></stop><stop offset="0.67" stop-color="#1745b5"></stop><stop offset="0.74" stop-color="#2559ba"></stop><stop offset="0.81" stop-color="#3976c3"></stop><stop offset="0.87" stop-color="#529acd"></stop><stop offset="0.94" stop-color="#70c6da"></stop><stop offset="1" stop-color="#92f7e8"></stop></linearGradient><linearGradient gradientUnits="userSpaceOnUse" id="未命名的渐变_382" node-id="117" x1="463.96" x2="463.96" y1="550.63" y2="379.41"><stop offset="0" stop-color="#d3e7fb"></stop><stop offset="1" stop-color="#4e82f9"></stop></linearGradient><linearGradient gradientUnits="userSpaceOnUse" id="未命名的渐变_382-2" node-id="120" x1="532.81" x2="532.81" y1="541.96" y2="370.48"><stop offset="0" stop-color="#d3e7fb"></stop><stop offset="1" stop-color="#4e82f9"></stop></linearGradient></defs><g node-id="475"><path d="M 911.72 667.00 L 713.00 780.51 C 690.87 793.16 634.27 797.94 586.58 791.19 L 158.53 730.58 C 110.84 723.83 90.16 708.11 112.29 695.46 L 311.00 581.91 C 333.13 569.26 389.70 564.47 437.39 571.22 L 865.48 631.83 C 913.13 638.58 933.85 654.31 911.72 667.00 Z" fill-opacity="0.31" fill-rule="nonzero" group-id="1" node-id="424" stroke="#00fff2" stroke-linecap="butt" stroke-opacity="0.31" stroke-width="1" target-height="226.0528" target-width="817.0593" target-x="103.4725" target-y="568.1799"></path></g><path d="M 754.59 756.76 L 713.00 780.51 C 690.87 793.16 634.27 797.94 586.58 791.19 L 572.43 789.19" fill="none" node-id="427" stroke="#00ffff" stroke-linecap="butt" stroke-width="1" target-height="37.472656" target-width="182.16003" target-x="572.43" target-y="756.76"></path><path d="M 813.29 624.45 L 865.44 631.83 C 913.13 638.58 933.85 654.31 911.72 666.96 L 880.72 684.66" fill="none" node-id="429" stroke="#00ffff" stroke-linecap="butt" stroke-width="1" target-height="60.20996" target-width="107.24127" target-x="813.29" target-y="624.45"></path><path d="M 210.00 737.87 L 158.49 730.58 C 110.80 723.83 90.12 708.11 112.25 695.46 L 186.55 653.00" fill="none" node-id="431" stroke="#00ffff" stroke-linecap="butt" stroke-width="1" target-height="84.869995" target-width="106.5675" target-x="103.4325" target-y="653"></path><path d="M 827.00 604.41 C 826.96 604.87 826.86 605.32 826.71 605.76 C 826.56 606.20 826.37 606.62 826.15 607.02 C 825.91 607.44 825.63 607.84 825.33 608.22 C 825.00 608.63 824.65 609.01 824.27 609.37 C 823.88 609.74 823.45 610.12 822.98 610.49 C 822.51 610.86 821.98 611.24 821.41 611.60 C 820.84 611.96 820.28 612.31 819.65 612.66 L 661.33 700.39 L 661.24 700.44 C 660.54 700.83 659.81 701.20 659.03 701.56 C 658.25 701.92 657.34 702.33 656.43 702.69 C 655.52 703.05 654.43 703.47 653.29 703.84 C 652.03 704.27 650.72 704.68 649.35 705.06 C 647.67 705.54 645.90 705.98 644.06 706.40 C 641.37 707.01 638.51 707.56 635.53 708.04 C 628.24 709.18 620.90 709.92 613.53 710.27 C 611.31 710.38 609.05 710.46 606.78 710.51 C 605.07 710.55 603.35 710.57 601.62 710.57 L 597.05 710.57 C 595.62 710.57 594.18 710.51 592.75 710.46 C 591.32 710.41 589.94 710.36 588.53 710.29 C 587.12 710.22 585.74 710.15 584.35 710.06 C 582.96 709.97 581.59 709.86 580.21 709.75 C 578.83 709.64 577.47 709.52 576.11 709.38 C 574.75 709.24 573.38 709.10 572.03 708.94 C 570.68 708.78 569.30 708.61 567.95 708.42 C 566.60 708.23 565.21 708.03 563.86 707.82 L 563.86 707.82 L 238.46 656.82 C 237.05 656.60 235.66 656.37 234.31 656.13 C 232.96 655.89 231.46 655.60 230.10 655.32 C 228.74 655.04 227.15 654.69 225.74 654.32 C 224.12 653.94 222.57 653.54 221.08 653.12 C 219.21 652.61 217.44 652.08 215.77 651.51 C 203.77 647.51 197.26 642.45 197.37 637.43 L 196.37 681.22 C 196.25 686.22 202.80 691.28 214.76 695.30 C 216.43 695.86 218.20 696.40 220.07 696.92 C 221.56 697.33 223.07 697.73 224.74 698.11 C 226.14 698.44 227.59 698.77 229.09 699.11 C 230.46 699.39 231.86 699.66 233.31 699.92 C 234.76 700.18 236.04 700.39 237.45 700.62 L 562.85 751.62 L 562.85 751.62 C 564.21 751.84 565.57 752.04 566.94 752.22 C 568.31 752.40 569.65 752.58 571.02 752.74 C 572.39 752.90 573.74 753.05 575.10 753.18 C 576.46 753.31 577.83 753.44 579.20 753.55 C 580.57 753.66 581.96 753.77 583.35 753.86 L 587.52 754.10 L 591.74 754.27 C 593.18 754.27 594.61 754.35 596.04 754.37 L 600.61 754.37 C 602.34 754.37 604.06 754.35 605.77 754.31 C 608.05 754.26 610.30 754.18 612.52 754.07 C 619.89 753.72 627.23 752.98 634.52 751.84 C 637.51 751.36 640.36 750.81 643.06 750.20 C 644.90 749.79 646.66 749.34 648.34 748.86 C 649.71 748.48 651.03 748.07 652.28 747.65 C 653.53 747.23 654.42 746.89 655.42 746.49 C 656.42 746.09 657.20 745.75 658.03 745.36 C 658.86 744.97 659.54 744.63 660.23 744.25 L 660.33 744.19 L 818.60 656.46 C 819.23 656.11 819.82 655.76 820.36 655.41 C 820.90 655.06 821.45 654.67 821.93 654.29 C 822.38 653.94 822.82 653.57 823.23 653.17 C 823.59 652.81 823.92 652.42 824.23 652.02 C 824.53 651.64 824.81 651.24 825.05 650.82 C 825.28 650.42 825.47 650.00 825.62 649.56 C 825.77 649.12 825.86 648.67 825.90 648.21 C 825.90 648.08 825.90 647.95 825.90 647.82 L 827.00 604.00 C 827.00 604.15 827.00 604.28 827.00 604.41 Z" fill="url(#未命名的渐变_131)" fill-rule="nonzero" node-id="433" stroke="url(#未命名的渐变_144)" stroke-linecap="butt" stroke-width="0.5" target-height="150.37" target-width="630.63" target-x="196.37" target-y="604"></path><path d="M 819.61 612.66 L 661.33 700.39 C 643.70 710.17 600.04 713.47 563.79 707.79 L 238.39 656.79 C 202.14 651.11 187.04 638.58 204.67 628.79 L 362.94 541.00 C 380.58 531.22 424.26 527.91 460.51 533.59 L 785.90 584.59 C 822.15 590.35 837.24 602.88 819.61 612.66 Z" fill="url(#未命名的渐变_169)" fill-rule="nonzero" node-id="435" stroke="url(#未命名的渐变_74)" stroke-linecap="butt" stroke-width="0.5" target-height="179.7088" target-width="629.5478" target-x="197.36726" target-y="530.8367"></path><path d="M 821.61 575.75 L 663.33 663.49 C 645.70 673.26 602.04 676.57 565.79 670.88 L 240.39 619.88 C 204.14 614.19 189.04 601.67 206.67 591.88 L 364.94 504.15 C 382.58 494.38 426.26 491.06 462.51 496.75 L 787.90 547.75 C 824.15 553.45 839.24 566.00 821.61 575.75 Z" fill="url(#未命名的渐变_136)" fill-rule="nonzero" node-id="437" stroke="url(#未命名的渐变_92)" stroke-linecap="butt" stroke-width="1" target-height="179.64807" target-width="629.5478" target-x="199.36725" target-y="493.99207"></path><path d="M 819.61 575.75 L 661.33 663.49 C 643.70 673.26 600.04 676.57 563.79 670.88 L 238.39 619.88 C 202.14 614.19 187.04 601.67 204.67 591.88 L 362.94 504.15 C 380.58 494.38 424.26 491.06 460.51 496.75 L 785.90 547.75 C 822.15 553.45 837.24 566.00 819.61 575.75 Z" fill-opacity="0.82" fill-rule="nonzero" group-id="2" node-id="441" stroke="url(#未命名的渐变_347)" stroke-linecap="butt" stroke-opacity="0.82" stroke-width="1" target-height="179.64813" target-width="629.5478" target-x="197.36725" target-y="493.992"></path><path d="M 379.08 332.64 L 343.43 352.00 C 360.85 342.52 381.43 338.49 403.52 341.59 L 439.18 322.20 C 417.12 319.14 396.51 323.16 379.08 332.64 Z" fill="url(#未命名的渐变_76)" fill-opacity="0.82" fill-rule="nonzero" group-id="3" node-id="446" stroke-linecap="butt" stroke-opacity="0.82" stroke-width="1" target-height="30.79007" target-width="95.75" target-x="343.43" target-y="321.20993"></path><g clip-path="url(#clip-path)" group-id="3,5" id="sillyvg_g_2" node-id="448"><path d="M 403.52 341.63 L 439.18 322.24 C 426.26 320.35 413.10 321.03 400.44 324.24 L 364.79 343.64 C 377.44 340.44 390.60 339.76 403.52 341.64" fill="url(#未命名的渐变_76-3)" fill-opacity="0.82" fill-rule="nonzero" group-id="3,5" node-id="450" stroke="url(#未命名的渐变_80-2)" stroke-linecap="butt" stroke-opacity="0.82" stroke-width="0.5" target-height="22.434143" target-width="74.389984" target-x="364.79" target-y="321.20587"></path><path d="M 364.79 343.63 L 400.44 324.23 C 394.27 325.82 388.27 328.04 382.55 330.85 L 346.89 350.24 C 352.62 347.44 358.62 345.22 364.79 343.63" fill="url(#未命名的渐变_76-4)" fill-opacity="0.82" fill-rule="nonzero" group-id="3,5" node-id="452" stroke="url(#未命名的渐变_80-3)" stroke-linecap="butt" stroke-opacity="0.82" stroke-width="0.5" target-height="26.00998" target-width="53.549988" target-x="346.89" target-y="324.23"></path><path d="M 346.89 350.24 L 382.55 330.85 C 381.38 331.42 380.23 332.02 379.08 332.64 L 343.43 352.00 C 344.57 351.38 345.72 350.78 346.89 350.20" fill="url(#未命名的渐变_76-5)" fill-opacity="0.82" fill-rule="nonzero" group-id="3,5" node-id="454" stroke="url(#未命名的渐变_80-4)" stroke-linecap="butt" stroke-opacity="0.82" stroke-width="0.5" target-height="21.149994" target-width="39.119995" target-x="343.43" target-y="330.85"></path></g><path d="M 379.08 332.64 L 343.43 352.00 C 360.85 342.52 381.43 338.49 403.52 341.59 L 439.18 322.20 C 417.12 319.14 396.51 323.16 379.08 332.64 Z" fill-opacity="0.82" fill-rule="nonzero" group-id="3" node-id="457" stroke="url(#未命名的渐变_80)" stroke-linecap="butt" stroke-opacity="0.82" stroke-width="0.5" target-height="30.79007" target-width="95.75" target-x="343.43" target-y="321.20993"></path><path d="M 634.84 374.14 L 670.50 354.75 C 662.08 292.38 613.62 239.07 554.64 230.75 L 519.00 250.18 C 578.00 258.47 626.42 311.77 634.84 374.14 Z" fill="none" node-id="460" stroke="none" target-height="143.39001" target-width="151.5" target-x="519" target-y="230.75"></path><path d="M 780.77 445.40 C 778.37 438.87 775.51 432.52 772.21 426.40 C 769.43 421.22 766.36 416.21 762.99 411.40 C 759.83 406.90 756.43 402.58 752.79 398.46 C 749.17 394.35 745.31 390.45 741.23 386.78 C 736.91 382.90 732.34 379.30 727.56 376.00 C 721.76 371.98 715.64 368.45 709.26 365.45 C 698.92 360.55 687.89 357.23 676.56 355.61 L 670.50 354.76 C 669.05 344.11 666.46 333.65 662.75 323.56 C 656.24 305.78 646.47 289.36 633.94 275.16 C 630.22 270.94 626.27 266.93 622.09 263.16 C 617.64 259.14 612.93 255.41 608.00 252.00 C 602.05 247.88 595.76 244.26 589.22 241.16 C 578.29 235.97 566.63 232.47 554.65 230.76 C 552.11 230.40 549.59 230.17 547.09 229.99 L 545.56 229.89 C 543.14 229.75 540.74 229.70 538.36 229.73 L 537.10 229.73 C 534.86 229.79 532.64 229.91 530.45 230.11 L 529.58 230.18 C 527.24 230.42 524.93 230.75 522.64 231.18 L 521.16 231.45 C 519.00 231.86 516.86 232.31 514.75 232.85 L 514.52 232.93 C 511.59 233.69 508.73 234.60 505.91 235.62 C 505.12 235.91 504.35 236.25 503.57 236.56 C 501.57 237.36 499.57 238.21 497.57 239.14 C 497.13 239.34 496.66 239.50 496.23 239.71 C 495.02 240.30 493.83 240.92 492.65 241.56 L 457.00 261.00 C 458.61 260.13 460.26 259.36 461.92 258.58 C 463.92 257.65 465.92 256.79 467.92 255.99 C 468.70 255.69 469.47 255.35 470.26 255.06 C 473.07 254.06 475.93 253.13 478.86 252.36 C 481.05 251.79 483.27 251.36 485.51 250.89 L 486.98 250.62 C 489.27 250.23 491.58 249.89 493.93 249.62 L 494.79 249.55 C 496.99 249.35 499.20 249.22 501.43 249.17 C 501.86 249.17 502.28 249.17 502.71 249.17 C 505.09 249.17 507.49 249.17 509.91 249.32 L 511.43 249.43 C 513.93 249.60 516.43 249.84 518.99 250.19 C 530.97 251.91 542.63 255.42 553.57 260.60 C 560.11 263.69 566.39 267.31 572.34 271.43 C 577.27 274.85 581.98 278.57 586.44 282.59 C 590.62 286.36 594.57 290.37 598.29 294.59 C 610.81 308.80 620.58 325.22 627.09 343.00 C 630.80 353.08 633.40 363.54 634.84 374.19 L 640.90 375.04 C 652.23 376.67 663.25 379.99 673.60 384.88 C 679.98 387.89 686.10 391.42 691.90 395.44 C 696.69 398.75 701.25 402.37 705.58 406.26 C 713.74 413.62 721.03 421.88 727.33 430.88 C 734.71 441.39 740.69 452.82 745.12 464.88 C 750.76 480.12 753.68 496.22 753.76 512.47 C 753.84 555.61 732.86 590.70 701.33 607.85 L 737.00 588.37 C 768.54 571.22 789.52 536.13 789.44 493.00 C 789.35 476.75 786.42 460.64 780.77 445.40 Z" fill="url(#未命名的渐变_73)" fill-opacity="0.82" fill-rule="nonzero" group-id="4" node-id="464" stroke="url(#未命名的渐变_389)" stroke-linecap="butt" stroke-opacity="0.82" stroke-width="0.5" target-height="378.12" target-width="332.44" target-x="457" target-y="229.73"></path><path d="M 701.33 607.77 L 737.00 588.37 C 768.54 571.22 789.52 536.13 789.44 493.00 C 789.31 426.09 738.56 364.31 676.58 355.60 L 640.90 375.00 C 702.90 383.72 753.64 445.50 753.76 512.40 C 753.84 555.53 732.86 590.62 701.33 607.77 Z" fill="none" node-id="467" stroke="none" target-height="252.17001" target-width="148.53998" target-x="640.9" target-y="355.6"></path><path d="M 519.00 250.18 C 460.80 242.00 411.74 282.41 403.54 341.63 C 341.54 332.92 291.01 380.47 290.38 447.27 C 290.51 514.17 341.25 575.95 403.24 584.66 L 641.37 618.13 C 703.37 626.84 753.90 579.30 753.78 512.39 C 753.66 445.48 702.89 383.71 640.90 375.00 L 634.84 374.15 C 626.42 311.77 578.00 258.47 519.00 250.18 Z" fill="url(#未命名的渐变_71)" fill-rule="nonzero" node-id="469" stroke="url(#未命名的渐变_336)" stroke-linecap="butt" stroke-width="0.5" target-height="370.01773" target-width="463.40002" target-x="290.38" target-y="249.13834"></path><path d="M 425.17 420.06 C 432.17 413.52 441.78 410.57 451.24 412.06 C 460.68 413.39 470.14 418.59 477.32 427.35 L 522.00 481.79 L 543.11 461.93 L 498.43 407.51 C 485.20 391.79 468.00 382.44 450.89 380.00 C 433.78 377.56 416.78 382.13 403.95 394.19 C 378.32 419.14 378.40 464.83 404.14 496.19 L 448.84 550.59 L 470.00 530.77 L 425.32 476.35 C 410.88 458.82 410.83 433.55 425.17 420.06 Z" fill="url(#未命名的渐变_382)" fill-rule="nonzero" node-id="471" stroke="none" target-height="171.1712" target-width="158.3288" target-x="384.7812" target-y="379.41882"></path><path d="M 593.00 424.87 L 548.32 370.48 L 527.19 390.34 L 571.89 444.75 C 586.26 462.26 586.31 487.55 571.99 501.04 C 565.00 507.58 555.39 510.53 545.93 509.04 C 536.48 507.71 527.02 502.50 519.82 493.74 L 475.14 439.35 L 454.00 459.17 L 498.70 513.59 C 511.57 529.26 528.21 538.95 545.60 541.39 C 562.62 543.87 579.85 538.49 592.43 526.77 C 618.05 502.63 618.00 456.94 593.00 424.87 Z" fill="url(#未命名的渐变_382-2)" fill-rule="nonzero" node-id="473" stroke="none" target-height="171.44717" target-width="157.69727" target-x="454" target-y="370.48"></path></svg>