<?xml version="1.0" standalone="no"?><!DOCTYPE svg PUBLIC "-//W3C//DTD SVG 1.1//EN" "http://www.w3.org/Graphics/SVG/1.1/DTD/svg11.dtd"><svg height="1024" legacy-metrics="false" node-id="1" sillyvg="true" template-height="1024" template-width="1024" version="1.1" viewBox="0 0 1024 1024" width="1024" xmlns="http://www.w3.org/2000/svg" xmlns:xlink="http://www.w3.org/1999/xlink"><defs node-id="181"><linearGradient gradientUnits="userSpaceOnUse" id="未命名的渐变_131" node-id="5" x1="196.56" x2="827.23" y1="815.28" y2="815.28"><stop offset="0" stop-color="#041fb2"></stop><stop offset="0.07" stop-color="#0524b4"></stop><stop offset="0.15" stop-color="#0831b8"></stop><stop offset="0.23" stop-color="#0d47c0"></stop><stop offset="0.32" stop-color="#1367cb"></stop><stop offset="0.41" stop-color="#1c8fda"></stop><stop offset="0.5" stop-color="#26bfeb"></stop><stop offset="0.55" stop-color="#2ee2f7"></stop><stop offset="0.61" stop-color="#2ddef6"></stop><stop offset="0.68" stop-color="#2ad2f2"></stop><stop offset="0.74" stop-color="#26bdec"></stop><stop offset="0.8" stop-color="#1fa0e3"></stop><stop offset="0.86" stop-color="#177bd7"></stop><stop offset="0.93" stop-color="#0d4fca"></stop><stop offset="0.98" stop-color="#0426bd"></stop></linearGradient><radialGradient cx="511.89" cy="815.4" fx="511.89" fy="815.4" gradientUnits="userSpaceOnUse" id="未命名的渐变_144" node-id="21" r="229.41"><stop offset="0" stop-color="#95e2f7"></stop><stop offset="0.25" stop-color="#74d6ea"></stop><stop offset="0.8" stop-color="#21b7c8"></stop><stop offset="0.98" stop-color="#04adbd"></stop></radialGradient><linearGradient gradientUnits="userSpaceOnUse" id="未命名的渐变_169" node-id="26" x1="345.13" x2="679.65" y1="924.06" y2="589.54"><stop offset="0" stop-color="#04adbd"></stop><stop offset="0.13" stop-color="#049abd"></stop><stop offset="0.73" stop-color="#0447bd"></stop><stop offset="1" stop-color="#0426bd"></stop></linearGradient><linearGradient gradientUnits="userSpaceOnUse" id="未命名的渐变_74" node-id="31" x1="344.96" x2="679.82" y1="924.23" y2="589.37"><stop offset="0" stop-color="#4244cf"></stop><stop offset="0.13" stop-color="#3d50d1"></stop><stop offset="0.38" stop-color="#2f6fd5"></stop><stop offset="0.69" stop-color="#19a0dc"></stop><stop offset="1" stop-color="#00d7e3"></stop></linearGradient><linearGradient gradientUnits="userSpaceOnUse" id="未命名的渐变_136" node-id="37" x1="199.55" x2="829.23" y1="719.89" y2="719.89"><stop offset="0" stop-color="#2ee2f7"></stop><stop offset="0.98" stop-color="#0426bd"></stop></linearGradient><linearGradient gradientUnits="userSpaceOnUse" id="未命名的渐变_92" node-id="40" x1="199.05" x2="829.73" y1="719.89" y2="719.89"><stop offset="0" stop-color="#2ee2f7"></stop><stop offset="0.13" stop-color="#31ceef"></stop><stop offset="0.41" stop-color="#389adc"></stop><stop offset="0.8" stop-color="#4447bc"></stop><stop offset="1" stop-color="#4a1aab"></stop></linearGradient><linearGradient gradientUnits="userSpaceOnUse" id="未命名的渐变_347" node-id="46" x1="197.05" x2="827.73" y1="719.89" y2="719.89"><stop offset="0" stop-color="#0924ad"></stop><stop offset="0.48" stop-color="#00e1ed"></stop><stop offset="0.55" stop-color="#1fb6e9"></stop><stop offset="0.67" stop-color="#4d76e4"></stop><stop offset="0.78" stop-color="#7143e0"></stop><stop offset="0.87" stop-color="#8b1edd"></stop><stop offset="0.95" stop-color="#9b08db"></stop><stop offset="1" stop-color="#a100da"></stop></linearGradient><linearGradient gradientUnits="userSpaceOnUse" id="未命名的渐变_96" node-id="55" x1="428.04" x2="428.04" y1="747.05" y2="518.97"><stop offset="0" stop-color="#0016ca"></stop><stop offset="0.25" stop-color="#0019cb"></stop><stop offset="0.42" stop-color="#0221cc"></stop><stop offset="0.56" stop-color="#0430cf"></stop><stop offset="0.68" stop-color="#0745d4"></stop><stop offset="0.79" stop-color="#0a60d9"></stop><stop offset="0.81" stop-color="#0b64da"></stop><stop offset="0.84" stop-color="#105ae1"></stop><stop offset="0.94" stop-color="#203af7"></stop><stop offset="1" stop-color="#262eff"></stop></linearGradient><linearGradient gradientUnits="userSpaceOnUse" id="未命名的渐变_547" node-id="66" x1="323.04" x2="533.17" y1="632.99" y2="632.99"><stop offset="0" stop-color="#a100da"></stop><stop offset="0.04" stop-color="#9b08db"></stop><stop offset="0.11" stop-color="#8b1edd"></stop><stop offset="0.19" stop-color="#7143e0"></stop><stop offset="0.28" stop-color="#4d76e4"></stop><stop offset="0.39" stop-color="#1fb6e9"></stop><stop offset="0.45" stop-color="#00e1ed"></stop><stop offset="0.74" stop-color="#0924ad"></stop><stop offset="0.77" stop-color="#092cb0"></stop><stop offset="0.81" stop-color="#0842b7"></stop><stop offset="0.86" stop-color="#0667c4"></stop><stop offset="0.92" stop-color="#039ad5"></stop><stop offset="0.99" stop-color="#00daeb"></stop><stop offset="1" stop-color="#00e1ed"></stop></linearGradient><linearGradient gradientUnits="userSpaceOnUse" id="未命名的渐变_83" node-id="81" x1="345.19" x2="451.04" y1="739.03" y2="555.7"><stop offset="0" stop-color="#00fdf5"></stop><stop offset="0.15" stop-color="#01d2ef"></stop><stop offset="0.58" stop-color="#0562df"></stop><stop offset="0.87" stop-color="#071cd5"></stop><stop offset="1" stop-color="#0800d1"></stop></linearGradient><linearGradient gradientUnits="userSpaceOnUse" id="未命名的渐变_336" node-id="87" x1="460.15" x2="336.08" y1="754.81" y2="539.92"><stop offset="0" stop-color="#6adcf8"></stop><stop offset="0.13" stop-color="#4da8e2"></stop><stop offset="0.26" stop-color="#3177cc"></stop><stop offset="0.38" stop-color="#1d53bd"></stop><stop offset="0.48" stop-color="#103db3"></stop><stop offset="0.54" stop-color="#0c35b0"></stop><stop offset="0.61" stop-color="#0f39b1"></stop><stop offset="0.67" stop-color="#1745b5"></stop><stop offset="0.74" stop-color="#2559ba"></stop><stop offset="0.81" stop-color="#3976c3"></stop><stop offset="0.87" stop-color="#529acd"></stop><stop offset="0.94" stop-color="#70c6da"></stop><stop offset="1" stop-color="#92f7e8"></stop></linearGradient><linearGradient gradientUnits="userSpaceOnUse" id="未命名的渐变_96-2" node-id="101" x1="427.66" x2="427.66" y1="539.11" y2="310.99"><stop offset="0" stop-color="#0016ca"></stop><stop offset="0.25" stop-color="#0019cb"></stop><stop offset="0.42" stop-color="#0221cc"></stop><stop offset="0.56" stop-color="#0430cf"></stop><stop offset="0.68" stop-color="#0745d4"></stop><stop offset="0.79" stop-color="#0a60d9"></stop><stop offset="0.81" stop-color="#0b64da"></stop><stop offset="0.84" stop-color="#105ae1"></stop><stop offset="0.94" stop-color="#203af7"></stop><stop offset="1" stop-color="#262eff"></stop></linearGradient><linearGradient gradientUnits="userSpaceOnUse" id="未命名的渐变_547-2" node-id="102" x1="322.66" x2="532.79" y1="425.03" y2="425.03"><stop offset="0" stop-color="#a100da"></stop><stop offset="0.04" stop-color="#9b08db"></stop><stop offset="0.11" stop-color="#8b1edd"></stop><stop offset="0.19" stop-color="#7143e0"></stop><stop offset="0.28" stop-color="#4d76e4"></stop><stop offset="0.39" stop-color="#1fb6e9"></stop><stop offset="0.45" stop-color="#00e1ed"></stop><stop offset="0.74" stop-color="#0924ad"></stop><stop offset="0.77" stop-color="#092cb0"></stop><stop offset="0.81" stop-color="#0842b7"></stop><stop offset="0.86" stop-color="#0667c4"></stop><stop offset="0.92" stop-color="#039ad5"></stop><stop offset="0.99" stop-color="#00daeb"></stop><stop offset="1" stop-color="#00e1ed"></stop></linearGradient><linearGradient gradientUnits="userSpaceOnUse" id="未命名的渐变_83-2" node-id="103" x1="335.82" x2="459.64" y1="332.19" y2="546.65"><stop offset="0" stop-color="#00fdf5"></stop><stop offset="0.15" stop-color="#01d2ef"></stop><stop offset="0.58" stop-color="#0562df"></stop><stop offset="0.87" stop-color="#071cd5"></stop><stop offset="1" stop-color="#0800d1"></stop></linearGradient><linearGradient gradientUnits="userSpaceOnUse" id="未命名的渐变_336-2" node-id="104" x1="459.77" x2="335.7" y1="546.86" y2="331.97"><stop offset="0" stop-color="#6adcf8"></stop><stop offset="0.13" stop-color="#4da8e2"></stop><stop offset="0.26" stop-color="#3177cc"></stop><stop offset="0.38" stop-color="#1d53bd"></stop><stop offset="0.48" stop-color="#103db3"></stop><stop offset="0.54" stop-color="#0c35b0"></stop><stop offset="0.61" stop-color="#0f39b1"></stop><stop offset="0.67" stop-color="#1745b5"></stop><stop offset="0.74" stop-color="#2559ba"></stop><stop offset="0.81" stop-color="#3976c3"></stop><stop offset="0.87" stop-color="#529acd"></stop><stop offset="0.94" stop-color="#70c6da"></stop><stop offset="1" stop-color="#92f7e8"></stop></linearGradient><linearGradient gradientUnits="userSpaceOnUse" id="未命名的渐变_96-3" node-id="105" x1="620.71" x2="620.71" y1="774.13" y2="546.02"><stop offset="0" stop-color="#0016ca"></stop><stop offset="0.25" stop-color="#0019cb"></stop><stop offset="0.42" stop-color="#0221cc"></stop><stop offset="0.56" stop-color="#0430cf"></stop><stop offset="0.68" stop-color="#0745d4"></stop><stop offset="0.79" stop-color="#0a60d9"></stop><stop offset="0.81" stop-color="#0b64da"></stop><stop offset="0.84" stop-color="#105ae1"></stop><stop offset="0.94" stop-color="#203af7"></stop><stop offset="1" stop-color="#262eff"></stop></linearGradient><linearGradient gradientUnits="userSpaceOnUse" id="未命名的渐变_547-3" node-id="106" x1="515.71" x2="725.84" y1="660.06" y2="660.06"><stop offset="0" stop-color="#a100da"></stop><stop offset="0.04" stop-color="#9b08db"></stop><stop offset="0.11" stop-color="#8b1edd"></stop><stop offset="0.19" stop-color="#7143e0"></stop><stop offset="0.28" stop-color="#4d76e4"></stop><stop offset="0.39" stop-color="#1fb6e9"></stop><stop offset="0.45" stop-color="#00e1ed"></stop><stop offset="0.74" stop-color="#0924ad"></stop><stop offset="0.77" stop-color="#092cb0"></stop><stop offset="0.81" stop-color="#0842b7"></stop><stop offset="0.86" stop-color="#0667c4"></stop><stop offset="0.92" stop-color="#039ad5"></stop><stop offset="0.99" stop-color="#00daeb"></stop><stop offset="1" stop-color="#00e1ed"></stop></linearGradient><linearGradient gradientUnits="userSpaceOnUse" id="未命名的渐变_83-3" node-id="107" x1="652.69" x2="528.87" y1="781.67" y2="567.21"><stop offset="0" stop-color="#00fdf5"></stop><stop offset="0.15" stop-color="#01d2ef"></stop><stop offset="0.58" stop-color="#0562df"></stop><stop offset="0.87" stop-color="#071cd5"></stop><stop offset="1" stop-color="#0800d1"></stop></linearGradient><linearGradient gradientUnits="userSpaceOnUse" id="未命名的渐变_336-3" node-id="108" x1="652.82" x2="528.75" y1="781.89" y2="567"><stop offset="0" stop-color="#6adcf8"></stop><stop offset="0.13" stop-color="#4da8e2"></stop><stop offset="0.26" stop-color="#3177cc"></stop><stop offset="0.38" stop-color="#1d53bd"></stop><stop offset="0.48" stop-color="#103db3"></stop><stop offset="0.54" stop-color="#0c35b0"></stop><stop offset="0.61" stop-color="#0f39b1"></stop><stop offset="0.67" stop-color="#1745b5"></stop><stop offset="0.74" stop-color="#2559ba"></stop><stop offset="0.81" stop-color="#3976c3"></stop><stop offset="0.87" stop-color="#529acd"></stop><stop offset="0.94" stop-color="#70c6da"></stop><stop offset="1" stop-color="#92f7e8"></stop></linearGradient><linearGradient gradientUnits="userSpaceOnUse" id="未命名的渐变_114" node-id="109" x1="620.32" x2="620.32" y1="566.18" y2="338.07"><stop offset="0" stop-color="#0b00ed"></stop><stop offset="0.23" stop-color="#0d00ed"></stop><stop offset="0.34" stop-color="#1500ec"></stop><stop offset="0.44" stop-color="#2300ea"></stop><stop offset="0.52" stop-color="#3600e8"></stop><stop offset="0.59" stop-color="#4e00e4"></stop><stop offset="0.66" stop-color="#6d00e1"></stop><stop offset="0.72" stop-color="#9000dc"></stop><stop offset="0.74" stop-color="#a100da"></stop><stop offset="0.78" stop-color="#9d01d9"></stop><stop offset="0.82" stop-color="#9104d5"></stop><stop offset="0.87" stop-color="#7d09cf"></stop><stop offset="0.91" stop-color="#610fc7"></stop><stop offset="0.95" stop-color="#3c18bc"></stop><stop offset="0.99" stop-color="#1122af"></stop><stop offset="1" stop-color="#0924ad"></stop></linearGradient><linearGradient gradientUnits="userSpaceOnUse" id="未命名的渐变_547-4" node-id="126" x1="515.32" x2="725.45" y1="452.11" y2="452.11"><stop offset="0" stop-color="#a100da"></stop><stop offset="0.04" stop-color="#9b08db"></stop><stop offset="0.11" stop-color="#8b1edd"></stop><stop offset="0.19" stop-color="#7143e0"></stop><stop offset="0.28" stop-color="#4d76e4"></stop><stop offset="0.39" stop-color="#1fb6e9"></stop><stop offset="0.45" stop-color="#00e1ed"></stop><stop offset="0.74" stop-color="#0924ad"></stop><stop offset="0.77" stop-color="#092cb0"></stop><stop offset="0.81" stop-color="#0842b7"></stop><stop offset="0.86" stop-color="#0667c4"></stop><stop offset="0.92" stop-color="#039ad5"></stop><stop offset="0.99" stop-color="#00daeb"></stop><stop offset="1" stop-color="#00e1ed"></stop></linearGradient><linearGradient gradientUnits="userSpaceOnUse" id="未命名的渐变_83-4" node-id="127" x1="643.32" x2="537.47" y1="374.83" y2="558.16"><stop offset="0" stop-color="#00fdf5"></stop><stop offset="0.15" stop-color="#01d2ef"></stop><stop offset="0.58" stop-color="#0562df"></stop><stop offset="0.87" stop-color="#071cd5"></stop><stop offset="1" stop-color="#0800d1"></stop></linearGradient><linearGradient gradientUnits="userSpaceOnUse" id="未命名的渐变_336-4" node-id="128" x1="652.43" x2="528.36" y1="573.94" y2="359.05"><stop offset="0" stop-color="#6adcf8"></stop><stop offset="0.13" stop-color="#4da8e2"></stop><stop offset="0.26" stop-color="#3177cc"></stop><stop offset="0.38" stop-color="#1d53bd"></stop><stop offset="0.48" stop-color="#103db3"></stop><stop offset="0.54" stop-color="#0c35b0"></stop><stop offset="0.61" stop-color="#0f39b1"></stop><stop offset="0.67" stop-color="#1745b5"></stop><stop offset="0.74" stop-color="#2559ba"></stop><stop offset="0.81" stop-color="#3976c3"></stop><stop offset="0.87" stop-color="#529acd"></stop><stop offset="0.94" stop-color="#70c6da"></stop><stop offset="1" stop-color="#92f7e8"></stop></linearGradient><linearGradient gradientUnits="userSpaceOnUse" id="未命名的渐变_382" node-id="129" x1="584.72" x2="584.72" y1="527.69" y2="413.43"><stop offset="0" stop-color="#d3e7fb"></stop><stop offset="1" stop-color="#4e82f9"></stop></linearGradient><linearGradient gradientTransform="matrix(0.9999756307053947 0.0069812602979615525 -0.0069812602979615525 0.9999756307053947 1.17 -11.11)" gradientUnits="userSpaceOnUse" id="未命名的渐变_382-2" node-id="132" x1="588.2" x2="588.2" y1="621.23" y2="742.97"><stop offset="0" stop-color="#d3e7fb"></stop><stop offset="1" stop-color="#4e82f9"></stop></linearGradient><linearGradient gradientUnits="userSpaceOnUse" id="未命名的渐变_382-3" node-id="133" x1="401.24" x2="401.24" y1="516.15" y2="394.4"><stop offset="0" stop-color="#d3e7fb"></stop><stop offset="1" stop-color="#4e82f9"></stop></linearGradient><linearGradient gradientUnits="userSpaceOnUse" id="未命名的渐变_382-4" node-id="134" x1="395.53" x2="395.53" y1="591.49" y2="705.76"><stop offset="0" stop-color="#d3e7fb"></stop><stop offset="1" stop-color="#4e82f9"></stop></linearGradient><linearGradient gradientUnits="userSpaceOnUse" id="未命名的渐变_7" node-id="135" x1="513.83" x2="513.83" y1="892.66" y2="93.66"><stop offset="0" stop-color="#04ffe9"></stop><stop offset="0.19" stop-color="#02c8f0"></stop><stop offset="0.37" stop-color="#0094f6"></stop><stop offset="0.53" stop-color="#1c85ca" stop-opacity="0.71"></stop><stop offset="0.76" stop-color="#407191" stop-opacity="0.33"></stop><stop offset="0.92" stop-color="#57656e" stop-opacity="0.09"></stop><stop offset="1" stop-color="#606060" stop-opacity="0"></stop></linearGradient><linearGradient gradientUnits="userSpaceOnUse" id="未命名的渐变_522" node-id="143" x1="337.15" x2="337.15" y1="254.54" y2="280.48"><stop offset="0" stop-color="#0094f6"></stop><stop offset="0.5" stop-color="#02c8f0"></stop><stop offset="1" stop-color="#04ffe9"></stop></linearGradient><linearGradient gradientUnits="userSpaceOnUse" id="未命名的渐变_522-2" node-id="147" x1="699.07" x2="699.07" y1="375.59" y2="392.88"><stop offset="0" stop-color="#0094f6"></stop><stop offset="0.5" stop-color="#02c8f0"></stop><stop offset="1" stop-color="#04ffe9"></stop></linearGradient><linearGradient gradientUnits="userSpaceOnUse" id="未命名的渐变_522-3" node-id="148" x1="246.66" x2="246.66" y1="583.1" y2="609.04"><stop offset="0" stop-color="#0094f6"></stop><stop offset="0.5" stop-color="#02c8f0"></stop><stop offset="1" stop-color="#04ffe9"></stop></linearGradient><linearGradient gradientUnits="userSpaceOnUse" id="未命名的渐变_522-4" node-id="149" x1="772.32" x2="772.32" y1="596.07" y2="630.66"><stop offset="0" stop-color="#0094f6"></stop><stop offset="0.5" stop-color="#02c8f0"></stop><stop offset="1" stop-color="#04ffe9"></stop></linearGradient><linearGradient gradientUnits="userSpaceOnUse" id="未命名的渐变_522-5" node-id="150" x1="604.28" x2="604.28" y1="769" y2="786.29"><stop offset="0" stop-color="#0094f6"></stop><stop offset="0.5" stop-color="#02c8f0"></stop><stop offset="1" stop-color="#04ffe9"></stop></linearGradient></defs><g node-id="820"><path d="M 912.00 803.00 L 713.29 916.59 C 691.16 929.24 634.56 934.03 586.87 927.27 L 158.78 866.67 C 111.09 859.92 90.41 844.20 112.54 831.55 L 311.21 718.00 C 333.34 705.35 389.91 700.56 437.60 707.31 L 865.69 767.92 C 913.38 774.67 934.10 790.39 912.00 803.00 Z" fill-opacity="0.31" fill-rule="nonzero" group-id="1" node-id="746" stroke="#00fff2" stroke-linecap="butt" stroke-opacity="0.31" stroke-width="1" target-height="226.04724" target-width="817.0714" target-x="103.7225" target-y="704.26996"></path></g><path d="M 754.84 892.85 L 713.29 916.59 C 691.16 929.24 634.56 934.03 586.87 927.27 L 572.72 925.27" fill="none" node-id="749" stroke="#00ffff" stroke-linecap="butt" stroke-width="1" target-height="37.467224" target-width="182.12006" target-x="572.72" target-y="892.85"></path><path d="M 813.54 760.53 L 865.69 767.92 C 913.38 774.67 934.10 790.39 912.00 803.00 L 881.00 820.71" fill="none" node-id="751" stroke="#00ffff" stroke-linecap="butt" stroke-width="1" target-height="60.179993" target-width="107.25391" target-x="813.54" target-y="760.53"></path><path d="M 210.21 874.46 L 158.71 867.16 C 126.42 862.59 105.19 853.63 103.30 843.76 C 102.71 840.67 103.79 835.97 112.30 831.11 L 186.56 788.67 L 187.05 789.54 L 112.79 832.00 C 106.46 835.61 103.52 839.62 104.28 843.59 C 106.09 853.02 127.00 861.69 158.85 866.19 L 210.36 873.49 Z" fill="#00ffff" fill-rule="nonzero" node-id="753" stroke="none" target-height="85.79004" target-width="107.19202" target-x="103.167984" target-y="788.67"></path><path d="M 827.21 740.49 C 827.17 740.95 827.07 741.41 826.92 741.85 C 826.77 742.29 826.58 742.71 826.35 743.11 C 826.11 743.53 825.84 743.93 825.53 744.31 C 825.22 744.71 824.89 745.09 824.53 745.45 C 824.12 745.85 823.68 746.23 823.23 746.58 C 822.76 746.95 822.23 747.32 821.67 747.69 C 821.11 748.06 820.54 748.40 819.91 748.75 L 661.58 836.48 L 661.49 836.48 C 660.79 836.87 660.06 837.24 659.28 837.60 C 658.50 837.96 657.59 838.36 656.68 838.73 C 655.77 839.10 654.68 839.51 653.54 839.88 C 652.28 840.31 650.97 840.71 649.60 841.10 C 647.91 841.58 646.15 842.02 644.31 842.44 C 641.62 843.05 638.76 843.59 635.78 844.07 C 628.49 845.22 621.15 845.96 613.78 846.30 C 611.55 846.41 609.30 846.50 607.03 846.55 C 605.32 846.55 603.60 846.57 601.87 846.61 C 600.35 846.61 598.82 846.61 597.30 846.61 C 595.78 846.61 594.43 846.61 593.00 846.51 C 591.57 846.41 590.18 846.41 588.78 846.34 C 587.38 846.27 585.99 846.20 584.60 846.10 L 580.46 845.80 C 579.09 845.69 577.72 845.56 576.36 845.43 L 572.27 844.99 C 570.91 844.83 569.55 844.65 568.20 844.47 C 566.85 844.29 565.46 844.08 564.11 843.87 L 564.11 843.87 L 238.72 792.87 C 237.30 792.65 235.92 792.42 234.57 792.18 C 233.22 791.94 231.72 791.65 230.35 791.37 C 228.98 791.09 227.41 790.74 226.00 790.37 C 224.38 789.98 222.83 789.59 221.34 789.17 C 219.46 788.65 217.69 788.17 216.03 787.56 C 204.03 783.56 197.52 778.50 197.63 773.48 L 196.63 817.27 C 196.52 822.27 203.07 827.32 215.03 831.35 C 216.70 831.91 218.47 832.45 220.34 832.96 C 221.83 833.38 223.34 833.78 225.00 834.16 C 226.41 834.49 227.86 834.81 229.36 835.16 C 230.86 835.51 232.13 835.71 233.57 835.97 C 235.01 836.23 236.31 836.44 237.72 836.66 L 563.12 887.66 L 563.12 887.66 C 564.48 887.87 565.84 888.07 567.21 888.26 C 568.58 888.45 569.92 888.62 571.29 888.78 C 572.66 888.94 574.00 889.08 575.37 889.22 C 576.74 889.36 578.10 889.48 579.47 889.59 C 580.84 889.70 582.23 889.81 583.61 889.90 C 584.99 889.99 586.40 890.07 587.79 890.13 C 589.18 890.19 590.60 890.26 592.01 890.30 C 593.42 890.34 594.88 890.38 596.31 890.41 L 600.88 890.41 C 602.61 890.41 604.33 890.39 606.04 890.35 C 608.31 890.35 610.57 890.22 612.79 890.11 C 620.16 889.76 627.50 889.02 634.79 887.88 C 637.79 887.40 640.63 886.88 643.32 886.24 C 645.16 885.82 646.93 885.38 648.61 884.90 C 649.98 884.52 651.30 884.11 652.55 883.68 C 653.64 883.31 654.69 882.93 655.69 882.53 C 656.69 882.13 657.47 881.79 658.30 881.40 C 659.13 881.01 659.80 880.67 660.50 880.28 L 660.60 880.23 L 818.87 792.50 C 819.50 792.15 820.09 791.80 820.63 791.44 C 821.17 791.08 821.72 790.70 822.20 790.33 C 822.68 789.96 823.11 789.58 823.50 789.21 C 823.85 788.85 824.19 788.46 824.50 788.06 C 824.80 787.68 825.08 787.28 825.32 786.86 C 825.54 786.46 825.73 786.04 825.88 785.60 C 826.03 785.16 826.13 784.70 826.17 784.24 C 826.17 784.12 826.17 783.99 826.17 783.86 L 827.17 740.07 C 827.23 740.24 827.22 740.37 827.21 740.49 Z" fill="url(#未命名的渐变_131)" fill-rule="nonzero" node-id="755" stroke="url(#未命名的渐变_144)" stroke-linecap="butt" stroke-width="0.5" target-height="150.33997" target-width="630.58" target-x="196.63" target-y="740.07"></path><path d="M 819.86 748.75 L 661.58 836.48 C 643.95 846.25 600.28 849.56 564.03 843.88 L 238.64 792.88 C 202.39 787.20 187.28 774.67 204.92 764.88 L 363.19 677.14 C 380.83 667.37 424.50 664.06 460.75 669.74 L 786.15 720.74 C 822.40 726.44 837.49 739.00 819.86 748.75 Z" fill="url(#未命名的渐变_169)" fill-rule="nonzero" node-id="757" stroke="url(#未命名的渐变_74)" stroke-linecap="butt" stroke-width="0.5" target-height="179.6471" target-width="629.55225" target-x="197.61282" target-y="666.98645"></path><path d="M 821.86 711.84 L 663.58 799.57 C 646.00 809.35 602.28 812.66 566.00 807.00 L 240.61 756.00 C 204.36 750.31 189.25 737.79 206.89 728.00 L 365.16 640.27 C 382.80 630.49 426.47 627.18 462.72 632.87 L 788.12 683.87 C 824.40 689.53 839.49 702.07 821.86 711.84 Z" fill="url(#未命名的渐变_136)" fill-rule="nonzero" node-id="759" stroke="url(#未命名的渐变_92)" stroke-linecap="butt" stroke-width="1" target-height="179.63007" target-width="629.5814" target-x="199.58282" target-y="630.1101"></path><path d="M 819.86 711.84 L 661.58 799.57 C 644.00 809.35 600.28 812.66 564.00 807.00 L 238.61 756.00 C 202.36 750.31 187.25 737.79 204.89 728.00 L 363.16 640.27 C 380.80 630.49 424.47 627.18 460.72 632.87 L 786.12 683.87 C 822.40 689.53 837.49 702.07 819.86 711.84 Z" fill-opacity="0.82" fill-rule="nonzero" group-id="2" node-id="763" stroke="url(#未命名的渐变_347)" stroke-linecap="butt" stroke-opacity="0.82" stroke-width="1" target-height="179.63007" target-width="629.5814" target-x="197.58282" target-y="630.1101"></path><path d="M 532.68 567.00 C 532.66 563.38 532.01 559.80 530.75 556.41 C 530.22 554.96 529.58 553.54 528.85 552.18 C 528.23 551.03 527.54 549.91 526.79 548.84 C 526.08 547.84 525.33 546.88 524.52 545.96 C 523.71 545.04 522.85 544.17 521.94 543.36 C 520.98 542.49 519.96 541.68 518.89 540.94 C 517.60 540.05 516.24 539.26 514.82 538.59 C 512.52 537.50 510.06 536.77 507.54 536.40 L 384.68 519.17 C 383.33 518.99 381.96 518.93 380.60 518.99 C 380.18 518.99 379.78 519.07 379.37 519.11 C 378.48 519.19 377.59 519.32 376.71 519.51 C 376.50 519.51 376.27 519.51 376.07 519.61 C 375.87 519.71 375.64 519.79 375.41 519.85 C 374.54 520.11 373.68 520.43 372.85 520.80 C 372.61 520.91 372.34 520.96 372.10 521.08 C 371.86 521.20 371.58 521.34 371.33 521.48 L 323.16 547.68 C 323.65 547.41 324.16 547.23 324.69 547.00 C 325.52 546.62 326.37 546.31 327.25 546.06 C 327.67 545.93 328.10 545.81 328.54 545.71 C 329.42 545.52 330.31 545.39 331.20 545.31 C 331.61 545.31 332.02 545.20 332.44 545.19 C 333.80 545.13 335.16 545.19 336.51 545.37 L 459.38 562.64 C 461.90 563.00 464.35 563.73 466.65 564.83 C 468.07 565.50 469.44 566.28 470.73 567.18 C 471.78 567.92 472.78 568.72 473.73 569.59 C 475.55 571.23 477.18 573.07 478.58 575.08 C 479.34 576.15 480.02 577.26 480.64 578.41 C 481.37 579.78 482.01 581.19 482.55 582.64 C 483.80 586.03 484.45 589.62 484.47 593.23 L 484.72 725.82 C 484.72 735.42 480.06 743.23 473.03 747.05 L 521.20 720.85 C 528.20 717.03 532.90 709.22 532.88 699.61 Z" fill="url(#未命名的渐变_96)" fill-opacity="0.82" fill-rule="nonzero" group-id="3" node-id="768" stroke="url(#未命名的渐变_547)" stroke-linecap="butt" stroke-opacity="0.82" stroke-width="0.5" target-height="228.06262" target-width="209.72" target-x="323.16" target-y="518.98737"></path><path d="M 336.51 545.37 C 322.72 543.43 311.45 554.03 311.51 568.92 L 311.76 701.50 C 311.76 716.39 323.09 730.16 336.89 732.09 L 459.75 749.36 C 473.55 751.30 484.81 740.71 484.75 725.82 L 484.50 593.23 C 484.50 578.34 473.16 564.58 459.37 562.64 Z" fill="url(#未命名的渐变_83)" fill-rule="nonzero" node-id="771" stroke="url(#未命名的渐变_336)" stroke-linecap="butt" stroke-width="0.5" target-height="204.43695" target-width="173.23999" target-x="311.51" target-y="545.1466"></path><path d="M 532.29 359.08 C 532.27 355.47 531.62 351.88 530.37 348.49 C 529.83 347.04 529.19 345.62 528.46 344.26 C 527.84 343.11 527.15 341.99 526.40 340.92 C 525.70 339.92 524.94 338.96 524.13 338.04 C 523.32 337.12 522.46 336.25 521.55 335.44 C 520.60 334.57 519.60 333.77 518.55 333.03 C 517.26 332.13 515.89 331.35 514.47 330.68 C 512.17 329.58 509.72 328.84 507.20 328.49 L 384.29 311.22 C 379.71 310.52 375.02 311.33 370.94 313.53 L 322.78 339.73 C 326.86 337.53 331.55 336.72 336.13 337.42 L 459.00 354.69 C 461.52 355.05 463.98 355.79 466.28 356.88 C 467.70 357.55 469.06 358.33 470.35 359.23 C 471.42 359.97 472.44 360.77 473.40 361.64 C 474.31 362.46 475.16 363.32 475.97 364.24 C 476.78 365.16 477.54 366.13 478.25 367.13 C 479.90 369.47 481.25 372.01 482.25 374.69 C 483.51 378.08 484.16 381.66 484.17 385.28 L 484.42 517.87 C 484.42 527.47 479.76 535.28 472.74 539.11 L 520.90 512.90 C 525.40 510.40 528.89 506.40 530.75 501.60 C 531.99 498.44 532.61 495.07 532.59 491.67 Z" fill="url(#未命名的渐变_96-2)" fill-opacity="0.82" fill-rule="nonzero" group-id="4" node-id="775" stroke="url(#未命名的渐变_547-2)" stroke-linecap="butt" stroke-opacity="0.82" stroke-width="0.5" target-height="228.1322" target-width="209.81003" target-x="322.78" target-y="310.97778"></path><path d="M 336.13 337.42 C 322.33 335.48 311.07 346.08 311.13 360.97 L 311.38 493.55 C 311.38 508.44 322.72 522.21 336.51 524.15 L 459.38 541.41 C 473.17 543.35 484.44 532.76 484.38 517.87 L 484.13 385.28 C 484.13 370.39 472.80 356.63 459.00 354.69 Z" fill="url(#未命名的渐变_83-2)" fill-rule="nonzero" node-id="778" stroke="url(#未命名的渐变_336-2)" stroke-linecap="butt" stroke-width="0.5" target-height="204.43686" target-width="173.25" target-x="311.13" target-y="337.1967"></path><path d="M 529.18 572.45 L 652.00 589.71 C 654.52 590.08 656.98 590.81 659.28 591.90 C 660.70 592.58 662.06 593.36 663.35 594.25 C 664.41 594.99 665.43 595.80 666.40 596.66 C 668.22 598.30 669.84 600.14 671.25 602.15 C 672.00 603.22 672.68 604.33 673.30 605.48 C 674.04 606.85 674.67 608.26 675.21 609.72 C 676.47 613.11 677.12 616.69 677.13 620.31 L 677.38 752.89 C 677.38 762.50 672.72 770.31 665.70 774.13 L 713.87 747.93 C 720.87 744.11 725.57 736.29 725.55 726.69 L 725.30 594.11 C 725.28 590.50 724.63 586.91 723.38 583.52 C 722.84 582.06 722.20 580.65 721.47 579.28 C 720.86 578.13 720.20 577.02 719.47 575.95 C 718.76 574.95 718.00 573.98 717.19 573.06 C 716.38 572.15 715.52 571.28 714.62 570.46 C 713.66 569.59 712.64 568.79 711.57 568.05 C 710.28 567.16 708.91 566.37 707.49 565.70 C 705.19 564.61 702.74 563.87 700.22 563.51 L 577.34 546.24 L 577.34 546.24 C 574.47 545.83 571.54 545.98 568.73 546.69 C 567.35 547.04 566.01 547.53 564.73 548.16 C 564.47 548.28 564.22 548.42 563.96 548.55 L 515.80 574.75 C 516.05 574.62 516.31 574.48 516.57 574.36 C 517.85 573.73 519.19 573.24 520.57 572.89 C 523.38 572.18 526.31 572.03 529.18 572.45 L 529.18 572.45" fill="url(#未命名的渐变_96-3)" fill-opacity="0.82" fill-rule="nonzero" group-id="5" node-id="782" stroke="url(#未命名的渐变_547-3)" stroke-linecap="butt" stroke-opacity="0.82" stroke-width="0.5" target-height="228.11499" target-width="209.75" target-x="515.8" target-y="546.015"></path><path d="M 529.18 572.45 C 515.38 570.51 504.12 581.10 504.18 595.99 L 504.42 728.58 C 504.42 743.47 515.76 757.23 529.55 759.17 L 652.42 776.44 C 666.22 778.38 677.48 767.78 677.42 752.89 L 677.17 620.31 C 677.17 605.42 665.84 591.65 652.04 589.71 L 529.18 572.45" fill="url(#未命名的渐变_83-3)" fill-rule="nonzero" node-id="785" stroke="url(#未命名的渐变_336-3)" stroke-linecap="butt" stroke-width="0.5" target-height="204.43707" target-width="173.23999" target-x="504.18" target-y="572.2264"></path><path d="M 725.00 386.16 C 724.96 382.54 724.28 378.96 723.00 375.57 C 722.47 374.11 721.83 372.69 721.09 371.33 C 720.49 370.18 719.82 369.07 719.09 368.00 C 718.39 367.00 717.63 366.04 716.82 365.12 C 716.01 364.21 715.14 363.33 714.24 362.51 C 713.27 361.65 712.25 360.84 711.19 360.10 C 709.90 359.21 708.54 358.42 707.12 357.75 C 704.82 356.66 702.36 355.93 699.84 355.56 L 577.00 338.30 C 572.42 337.60 567.73 338.41 563.65 340.60 L 515.48 366.81 C 519.56 364.61 524.25 363.80 528.83 364.50 L 651.70 381.77 C 654.22 382.13 656.67 382.86 658.97 383.96 C 660.39 384.63 661.76 385.41 663.05 386.31 C 664.10 387.05 665.10 387.85 666.05 388.72 C 666.96 389.53 667.82 390.40 668.63 391.32 C 669.44 392.24 670.20 393.20 670.90 394.20 C 671.65 395.27 672.34 396.39 672.96 397.54 C 673.69 398.90 674.33 400.32 674.86 401.77 C 676.12 405.16 676.77 408.74 676.79 412.36 L 677.00 545.00 C 677.00 554.60 672.35 562.41 665.32 566.23 L 713.52 540.00 C 720.52 536.18 725.22 528.36 725.20 518.76 Z" fill="url(#未命名的渐变_114)" fill-opacity="0.82" fill-rule="nonzero" group-id="6" node-id="789" stroke="url(#未命名的渐变_547-4)" stroke-linecap="butt" stroke-opacity="0.82" stroke-width="0.5" target-height="228.17175" target-width="209.72003" target-x="515.48" target-y="338.05823"></path><path d="M 528.79 364.50 C 514.99 362.56 503.73 373.15 503.79 388.04 L 504.00 520.63 C 504.00 535.52 515.33 549.28 529.13 551.22 L 652.00 568.49 C 665.80 570.43 677.06 559.83 677.00 544.94 L 676.76 412.36 C 676.76 397.47 665.42 383.70 651.63 381.77 Z" fill="url(#未命名的渐变_83-4)" fill-rule="nonzero" node-id="792" stroke="url(#未命名的渐变_336-4)" stroke-linecap="butt" stroke-width="0.5" target-height="204.43701" target-width="173.20999" target-x="503.79" target-y="364.27637"></path><path d="M 584.56 413.92 C 570.85 411.99 557.15 415.71 546.70 425.52 C 528.85 442.34 530.43 500.80 532.26 516.40 C 532.54 518.83 534.23 520.87 536.56 521.60 C 543.38 523.35 550.30 524.69 557.28 525.60 C 579.21 528.68 609.97 529.80 622.63 517.89 C 643.50 498.26 643.43 461.66 622.48 436.13 C 612.00 423.42 598.27 415.85 584.56 413.92 Z" fill="url(#未命名的渐变_382)" fill-rule="nonzero" node-id="794" stroke="none" target-height="114.1889" target-width="106.948" target-x="531.2237" target-y="413.45782"></path><path d="M 557.38 615.77 C 550.56 614.70 543.68 614.05 536.78 613.83 C 534.51 613.81 532.62 615.57 532.47 617.83 C 530.56 632.83 528.81 690.94 546.61 712.83 C 556.99 725.67 570.61 733.34 584.35 735.36 C 598.09 737.38 611.77 733.76 622.28 724.00 C 643.28 704.52 643.46 667.92 622.69 642.24 C 610.09 626.73 579.29 619.00 557.38 615.77 Z" fill="url(#未命名的渐变_382-2)" fill-rule="nonzero" node-id="796" stroke="none" target-height="122.0271" target-width="106.76422" target-x="531.3314" target-y="613.83"></path><path d="M 401.13 394.89 C 387.43 392.97 373.72 396.69 363.28 406.51 C 342.41 426.14 342.48 462.74 363.43 488.27 C 376.16 503.75 407.00 511.27 428.94 514.35 C 435.77 515.38 442.66 515.98 449.56 516.15 C 451.81 516.13 453.66 514.39 453.82 512.15 C 455.62 497.00 457.00 439.00 439.00 417.16 C 428.56 404.39 414.84 396.82 401.13 394.89 Z" fill="url(#未命名的渐变_382-3)" fill-rule="nonzero" node-id="798" stroke="none" target-height="121.71893" target-width="107.05377" target-x="347.73828" target-y="394.4311"></path><path d="M 423.00 593.55 C 401.07 590.47 370.31 589.35 357.66 601.26 C 336.80 620.88 336.87 657.49 357.82 683.02 C 368.30 695.77 382.03 703.34 395.73 705.27 C 409.43 707.20 423.14 703.48 433.57 693.66 C 451.45 676.85 449.87 618.39 448.01 602.78 C 447.74 600.35 446.05 598.31 443.71 597.58 C 436.89 595.82 429.98 594.47 423.00 593.55 Z" fill="url(#未命名的渐变_382-4)" fill-rule="nonzero" node-id="800" stroke="none" target-height="114.22888" target-width="106.939514" target-x="342.12677" target-y="591.5033"></path><path d="M 830.64 94.05 C 830.60 94.51 830.51 94.96 830.36 95.40 C 830.21 95.84 830.02 96.26 829.79 96.66 C 829.55 97.08 829.28 97.48 828.97 97.86 C 828.65 98.27 828.30 98.65 827.92 99.00 C 827.51 99.40 827.08 99.78 826.63 100.13 C 826.15 100.50 825.63 100.87 825.06 101.24 C 824.49 101.61 823.94 101.95 823.31 102.30 L 661.05 190.15 L 660.96 190.21 C 660.26 190.59 659.53 190.96 658.76 191.33 C 657.99 191.70 657.07 192.09 656.16 192.45 C 655.25 192.81 654.16 193.24 653.02 193.61 C 651.88 193.98 650.46 194.44 649.09 194.83 C 647.41 195.31 645.65 195.75 643.82 196.17 C 641.13 196.78 638.28 197.33 635.30 197.81 C 628.01 198.95 620.67 199.70 613.30 200.04 C 611.08 200.15 608.83 200.23 606.56 200.28 C 604.86 200.28 603.14 200.34 601.41 200.34 C 599.90 200.34 598.38 200.34 596.85 200.34 C 595.42 200.34 593.99 200.29 592.56 200.24 C 591.13 200.19 589.75 200.14 588.35 200.07 L 584.18 199.83 C 582.80 199.74 581.42 199.64 580.05 199.53 C 578.68 199.42 577.31 199.29 575.95 199.15 C 574.59 199.01 573.23 198.87 571.88 198.71 C 570.53 198.55 569.16 198.38 567.81 198.19 C 566.46 198.00 565.08 197.81 563.73 197.59 L 563.73 197.59 L 239.00 146.46 C 237.59 146.24 236.21 146.01 234.86 145.76 C 233.51 145.51 232.02 145.23 230.65 144.95 C 229.28 144.67 227.71 144.32 226.31 143.95 C 224.69 143.57 223.14 143.17 221.65 142.76 C 219.78 142.24 218.02 141.70 216.36 141.14 C 204.42 137.14 197.88 132.07 198.00 127.04 L 197.00 819.40 C 196.89 824.40 203.42 829.47 215.36 833.50 C 217.02 834.06 218.79 834.60 220.66 835.12 C 222.15 835.53 223.66 835.93 225.31 836.31 C 226.71 836.64 228.16 836.98 229.66 837.31 C 231.02 837.59 232.43 837.86 233.87 838.12 C 235.31 838.38 236.59 838.60 238.00 838.82 L 562.72 889.92 L 562.72 889.92 C 564.05 890.13 565.41 890.33 566.80 890.52 C 568.15 890.71 569.50 890.88 570.87 891.04 C 572.24 891.20 573.58 891.35 574.94 891.48 C 576.30 891.61 577.66 891.74 579.03 891.85 C 580.40 891.96 581.79 892.07 583.17 892.16 C 584.55 892.25 585.94 892.33 587.33 892.40 C 588.72 892.47 590.14 892.52 591.55 892.57 C 592.96 892.62 594.41 892.65 595.83 892.67 C 597.25 892.69 598.83 892.67 600.40 892.67 C 602.12 892.67 603.84 892.67 605.55 892.61 C 607.82 892.56 610.06 892.48 612.28 892.37 C 619.65 892.02 626.99 891.28 634.28 890.14 C 637.28 889.66 640.10 889.14 642.79 888.50 C 644.63 888.08 646.39 887.64 648.07 887.16 C 649.43 886.77 650.75 886.37 652.00 885.94 C 653.09 885.57 654.14 885.18 655.13 884.78 C 656.12 884.38 656.91 884.04 657.73 883.65 C 658.55 883.26 659.24 882.92 659.93 882.54 L 660.03 882.48 L 822.28 794.64 C 822.91 794.29 823.50 793.94 824.04 793.58 C 824.58 793.22 825.12 792.84 825.60 792.47 C 826.05 792.12 826.49 791.74 826.90 791.34 C 827.26 790.98 827.59 790.59 827.90 790.19 C 828.20 789.81 828.47 789.41 828.71 788.99 C 828.94 788.59 829.13 788.17 829.28 787.73 C 829.43 787.29 829.53 786.83 829.57 786.37 C 829.57 786.25 829.57 786.12 829.57 785.99 L 830.57 93.67 C 830.66 93.79 830.65 93.92 830.64 94.05 Z" fill="url(#未命名的渐变_7)" fill-opacity="0.53" fill-rule="nonzero" group-id="7" node-id="804" stroke-linecap="butt" stroke-opacity="0.53" stroke-width="1" target-height="799" target-width="633.64" target-x="197" target-y="93.67"></path><path d="M 350.08 267.51 C 350.08 274.67 344.29 280.48 337.15 280.48 C 330.01 280.48 324.22 274.67 324.22 267.51 C 324.22 260.35 330.01 254.54 337.15 254.54 C 344.29 254.54 350.08 260.35 350.08 267.51 Z" fill="url(#未命名的渐变_522)" fill-rule="nonzero" node-id="807" stroke="none" target-height="25.940018" target-width="25.859985" target-x="324.22" target-y="254.54"></path><path d="M 707.69 384.24 C 707.69 389.02 703.83 392.89 699.07 392.89 C 694.31 392.89 690.45 389.02 690.45 384.24 C 690.45 379.46 694.31 375.59 699.07 375.59 C 703.83 375.59 707.69 379.46 707.69 384.24 Z" fill="url(#未命名的渐变_522-2)" fill-rule="nonzero" node-id="809" stroke="none" target-height="17.300018" target-width="17.23999" target-x="690.45" target-y="375.59"></path><path d="M 259.59 596.07 C 259.59 603.23 253.80 609.04 246.66 609.04 C 239.52 609.04 233.73 603.23 233.73 596.07 C 233.73 588.91 239.52 583.10 246.66 583.10 C 253.80 583.10 259.59 588.91 259.59 596.07 Z" fill="url(#未命名的渐变_522-3)" fill-rule="nonzero" node-id="811" stroke="none" target-height="25.940002" target-width="25.86" target-x="233.73" target-y="583.1"></path><path d="M 789.55 613.36 C 789.55 622.91 781.84 630.65 772.32 630.65 C 762.80 630.65 755.09 622.91 755.09 613.36 C 755.09 603.81 762.80 596.07 772.32 596.07 C 781.84 596.07 789.55 603.81 789.55 613.36 Z" fill="url(#未命名的渐变_522-4)" fill-opacity="0.75" fill-rule="nonzero" group-id="8" node-id="815" stroke-linecap="butt" stroke-opacity="0.75" stroke-width="1" target-height="34.580017" target-width="34.45996" target-x="755.09" target-y="596.07"></path><path d="M 612.90 777.64 C 612.90 782.42 609.04 786.29 604.28 786.29 C 599.52 786.29 595.66 782.42 595.66 777.64 C 595.66 772.86 599.52 768.99 604.28 768.99 C 609.04 768.99 612.90 772.86 612.90 777.64 Z" fill="url(#未命名的渐变_522-5)" fill-rule="nonzero" node-id="818" stroke="none" target-height="17.299988" target-width="17.240051" target-x="595.66" target-y="768.99"></path></svg>