<?xml version="1.0" standalone="no"?><!DOCTYPE svg PUBLIC "-//W3C//DTD SVG 1.1//EN" "http://www.w3.org/Graphics/SVG/1.1/DTD/svg11.dtd"><svg height="1024" legacy-metrics="false" node-id="1" sillyvg="true" template-height="1024" template-width="1024" version="1.1" viewBox="0 0 1024 1024" width="1024" xmlns="http://www.w3.org/2000/svg" xmlns:xlink="http://www.w3.org/1999/xlink"><defs node-id="159"><linearGradient gradientUnits="userSpaceOnUse" id="未命名的渐变_131" node-id="5" x1="196.56" x2="827.23" y1="706.62" y2="706.62"><stop offset="0" stop-color="#041fb2"></stop><stop offset="0.07" stop-color="#0524b4"></stop><stop offset="0.15" stop-color="#0831b8"></stop><stop offset="0.23" stop-color="#0d47c0"></stop><stop offset="0.32" stop-color="#1367cb"></stop><stop offset="0.41" stop-color="#1c8fda"></stop><stop offset="0.5" stop-color="#26bfeb"></stop><stop offset="0.55" stop-color="#2ee2f7"></stop><stop offset="0.61" stop-color="#2ddef6"></stop><stop offset="0.68" stop-color="#2ad2f2"></stop><stop offset="0.74" stop-color="#26bdec"></stop><stop offset="0.8" stop-color="#1fa0e3"></stop><stop offset="0.86" stop-color="#177bd7"></stop><stop offset="0.93" stop-color="#0d4fca"></stop><stop offset="0.98" stop-color="#0426bd"></stop></linearGradient><radialGradient cx="511.89" cy="706.74" fx="511.89" fy="706.74" gradientUnits="userSpaceOnUse" id="未命名的渐变_144" node-id="21" r="229.41"><stop offset="0" stop-color="#95e2f7"></stop><stop offset="0.25" stop-color="#74d6ea"></stop><stop offset="0.8" stop-color="#21b7c8"></stop><stop offset="0.98" stop-color="#04adbd"></stop></radialGradient><linearGradient gradientUnits="userSpaceOnUse" id="未命名的渐变_169" node-id="26" x1="345.13" x2="679.65" y1="815.39" y2="480.88"><stop offset="0" stop-color="#04adbd"></stop><stop offset="0.13" stop-color="#049abd"></stop><stop offset="0.73" stop-color="#0447bd"></stop><stop offset="1" stop-color="#0426bd"></stop></linearGradient><linearGradient gradientUnits="userSpaceOnUse" id="未命名的渐变_74" node-id="31" x1="344.96" x2="679.82" y1="815.57" y2="480.7"><stop offset="0" stop-color="#4244cf"></stop><stop offset="0.13" stop-color="#3d50d1"></stop><stop offset="0.38" stop-color="#2f6fd5"></stop><stop offset="0.69" stop-color="#19a0dc"></stop><stop offset="1" stop-color="#00d7e3"></stop></linearGradient><linearGradient gradientUnits="userSpaceOnUse" id="未命名的渐变_136" node-id="37" x1="199.55" x2="829.23" y1="611.23" y2="611.23"><stop offset="0" stop-color="#2ee2f7"></stop><stop offset="0.98" stop-color="#0426bd"></stop></linearGradient><linearGradient gradientUnits="userSpaceOnUse" id="未命名的渐变_92" node-id="40" x1="199.05" x2="829.73" y1="611.23" y2="611.23"><stop offset="0" stop-color="#2ee2f7"></stop><stop offset="0.13" stop-color="#31ceef"></stop><stop offset="0.41" stop-color="#389adc"></stop><stop offset="0.8" stop-color="#4447bc"></stop><stop offset="1" stop-color="#4a1aab"></stop></linearGradient><linearGradient gradientUnits="userSpaceOnUse" id="未命名的渐变_347" node-id="46" x1="197.05" x2="827.73" y1="611.23" y2="611.23"><stop offset="0" stop-color="#0924ad"></stop><stop offset="0.48" stop-color="#00e1ed"></stop><stop offset="0.55" stop-color="#1fb6e9"></stop><stop offset="0.67" stop-color="#4d76e4"></stop><stop offset="0.78" stop-color="#7143e0"></stop><stop offset="0.87" stop-color="#8b1edd"></stop><stop offset="0.95" stop-color="#9b08db"></stop><stop offset="1" stop-color="#a100da"></stop></linearGradient><linearGradient gradientUnits="userSpaceOnUse" id="未命名的渐变_96" node-id="55" x1="428.04" x2="428.04" y1="638.39" y2="410.3"><stop offset="0" stop-color="#0016ca"></stop><stop offset="0.25" stop-color="#0019cb"></stop><stop offset="0.42" stop-color="#0221cc"></stop><stop offset="0.56" stop-color="#0430cf"></stop><stop offset="0.68" stop-color="#0745d4"></stop><stop offset="0.79" stop-color="#0a60d9"></stop><stop offset="0.81" stop-color="#0b64da"></stop><stop offset="0.84" stop-color="#105ae1"></stop><stop offset="0.94" stop-color="#203af7"></stop><stop offset="1" stop-color="#262eff"></stop></linearGradient><linearGradient gradientUnits="userSpaceOnUse" id="未命名的渐变_547" node-id="66" x1="323.04" x2="533.17" y1="524.33" y2="524.33"><stop offset="0" stop-color="#a100da"></stop><stop offset="0.04" stop-color="#9b08db"></stop><stop offset="0.11" stop-color="#8b1edd"></stop><stop offset="0.19" stop-color="#7143e0"></stop><stop offset="0.28" stop-color="#4d76e4"></stop><stop offset="0.39" stop-color="#1fb6e9"></stop><stop offset="0.45" stop-color="#00e1ed"></stop><stop offset="0.74" stop-color="#0924ad"></stop><stop offset="0.77" stop-color="#092cb0"></stop><stop offset="0.81" stop-color="#0842b7"></stop><stop offset="0.86" stop-color="#0667c4"></stop><stop offset="0.92" stop-color="#039ad5"></stop><stop offset="0.99" stop-color="#00daeb"></stop><stop offset="1" stop-color="#00e1ed"></stop></linearGradient><linearGradient gradientUnits="userSpaceOnUse" id="未命名的渐变_83" node-id="81" x1="345.19" x2="451.04" y1="630.37" y2="447.04"><stop offset="0" stop-color="#00fdf5"></stop><stop offset="0.15" stop-color="#01d2ef"></stop><stop offset="0.58" stop-color="#0562df"></stop><stop offset="0.87" stop-color="#071cd5"></stop><stop offset="1" stop-color="#0800d1"></stop></linearGradient><linearGradient gradientUnits="userSpaceOnUse" id="未命名的渐变_336" node-id="87" x1="460.15" x2="336.08" y1="646.15" y2="431.26"><stop offset="0" stop-color="#6adcf8"></stop><stop offset="0.13" stop-color="#4da8e2"></stop><stop offset="0.26" stop-color="#3177cc"></stop><stop offset="0.38" stop-color="#1d53bd"></stop><stop offset="0.48" stop-color="#103db3"></stop><stop offset="0.54" stop-color="#0c35b0"></stop><stop offset="0.61" stop-color="#0f39b1"></stop><stop offset="0.67" stop-color="#1745b5"></stop><stop offset="0.74" stop-color="#2559ba"></stop><stop offset="0.81" stop-color="#3976c3"></stop><stop offset="0.87" stop-color="#529acd"></stop><stop offset="0.94" stop-color="#70c6da"></stop><stop offset="1" stop-color="#92f7e8"></stop></linearGradient><linearGradient gradientUnits="userSpaceOnUse" id="未命名的渐变_96-2" node-id="101" x1="427.66" x2="427.66" y1="430.44" y2="202.33"><stop offset="0" stop-color="#0016ca"></stop><stop offset="0.25" stop-color="#0019cb"></stop><stop offset="0.42" stop-color="#0221cc"></stop><stop offset="0.56" stop-color="#0430cf"></stop><stop offset="0.68" stop-color="#0745d4"></stop><stop offset="0.79" stop-color="#0a60d9"></stop><stop offset="0.81" stop-color="#0b64da"></stop><stop offset="0.84" stop-color="#105ae1"></stop><stop offset="0.94" stop-color="#203af7"></stop><stop offset="1" stop-color="#262eff"></stop></linearGradient><linearGradient gradientUnits="userSpaceOnUse" id="未命名的渐变_547-2" node-id="102" x1="322.66" x2="532.79" y1="316.37" y2="316.37"><stop offset="0" stop-color="#a100da"></stop><stop offset="0.04" stop-color="#9b08db"></stop><stop offset="0.11" stop-color="#8b1edd"></stop><stop offset="0.19" stop-color="#7143e0"></stop><stop offset="0.28" stop-color="#4d76e4"></stop><stop offset="0.39" stop-color="#1fb6e9"></stop><stop offset="0.45" stop-color="#00e1ed"></stop><stop offset="0.74" stop-color="#0924ad"></stop><stop offset="0.77" stop-color="#092cb0"></stop><stop offset="0.81" stop-color="#0842b7"></stop><stop offset="0.86" stop-color="#0667c4"></stop><stop offset="0.92" stop-color="#039ad5"></stop><stop offset="0.99" stop-color="#00daeb"></stop><stop offset="1" stop-color="#00e1ed"></stop></linearGradient><linearGradient gradientUnits="userSpaceOnUse" id="未命名的渐变_83-2" node-id="103" x1="335.82" x2="459.64" y1="223.53" y2="437.98"><stop offset="0" stop-color="#00fdf5"></stop><stop offset="0.15" stop-color="#01d2ef"></stop><stop offset="0.58" stop-color="#0562df"></stop><stop offset="0.87" stop-color="#071cd5"></stop><stop offset="1" stop-color="#0800d1"></stop></linearGradient><linearGradient gradientUnits="userSpaceOnUse" id="未命名的渐变_336-2" node-id="104" x1="459.77" x2="335.7" y1="438.2" y2="223.31"><stop offset="0" stop-color="#6adcf8"></stop><stop offset="0.13" stop-color="#4da8e2"></stop><stop offset="0.26" stop-color="#3177cc"></stop><stop offset="0.38" stop-color="#1d53bd"></stop><stop offset="0.48" stop-color="#103db3"></stop><stop offset="0.54" stop-color="#0c35b0"></stop><stop offset="0.61" stop-color="#0f39b1"></stop><stop offset="0.67" stop-color="#1745b5"></stop><stop offset="0.74" stop-color="#2559ba"></stop><stop offset="0.81" stop-color="#3976c3"></stop><stop offset="0.87" stop-color="#529acd"></stop><stop offset="0.94" stop-color="#70c6da"></stop><stop offset="1" stop-color="#92f7e8"></stop></linearGradient><linearGradient gradientUnits="userSpaceOnUse" id="未命名的渐变_96-3" node-id="105" x1="620.71" x2="620.71" y1="665.47" y2="437.35"><stop offset="0" stop-color="#0016ca"></stop><stop offset="0.25" stop-color="#0019cb"></stop><stop offset="0.42" stop-color="#0221cc"></stop><stop offset="0.56" stop-color="#0430cf"></stop><stop offset="0.68" stop-color="#0745d4"></stop><stop offset="0.79" stop-color="#0a60d9"></stop><stop offset="0.81" stop-color="#0b64da"></stop><stop offset="0.84" stop-color="#105ae1"></stop><stop offset="0.94" stop-color="#203af7"></stop><stop offset="1" stop-color="#262eff"></stop></linearGradient><linearGradient gradientUnits="userSpaceOnUse" id="未命名的渐变_547-3" node-id="106" x1="515.71" x2="725.84" y1="551.39" y2="551.39"><stop offset="0" stop-color="#a100da"></stop><stop offset="0.04" stop-color="#9b08db"></stop><stop offset="0.11" stop-color="#8b1edd"></stop><stop offset="0.19" stop-color="#7143e0"></stop><stop offset="0.28" stop-color="#4d76e4"></stop><stop offset="0.39" stop-color="#1fb6e9"></stop><stop offset="0.45" stop-color="#00e1ed"></stop><stop offset="0.74" stop-color="#0924ad"></stop><stop offset="0.77" stop-color="#092cb0"></stop><stop offset="0.81" stop-color="#0842b7"></stop><stop offset="0.86" stop-color="#0667c4"></stop><stop offset="0.92" stop-color="#039ad5"></stop><stop offset="0.99" stop-color="#00daeb"></stop><stop offset="1" stop-color="#00e1ed"></stop></linearGradient><linearGradient gradientUnits="userSpaceOnUse" id="未命名的渐变_83-3" node-id="107" x1="652.69" x2="528.87" y1="673.01" y2="458.55"><stop offset="0" stop-color="#00fdf5"></stop><stop offset="0.15" stop-color="#01d2ef"></stop><stop offset="0.58" stop-color="#0562df"></stop><stop offset="0.87" stop-color="#071cd5"></stop><stop offset="1" stop-color="#0800d1"></stop></linearGradient><linearGradient gradientUnits="userSpaceOnUse" id="未命名的渐变_336-3" node-id="108" x1="652.82" x2="528.75" y1="673.22" y2="458.33"><stop offset="0" stop-color="#6adcf8"></stop><stop offset="0.13" stop-color="#4da8e2"></stop><stop offset="0.26" stop-color="#3177cc"></stop><stop offset="0.38" stop-color="#1d53bd"></stop><stop offset="0.48" stop-color="#103db3"></stop><stop offset="0.54" stop-color="#0c35b0"></stop><stop offset="0.61" stop-color="#0f39b1"></stop><stop offset="0.67" stop-color="#1745b5"></stop><stop offset="0.74" stop-color="#2559ba"></stop><stop offset="0.81" stop-color="#3976c3"></stop><stop offset="0.87" stop-color="#529acd"></stop><stop offset="0.94" stop-color="#70c6da"></stop><stop offset="1" stop-color="#92f7e8"></stop></linearGradient><linearGradient gradientUnits="userSpaceOnUse" id="未命名的渐变_114" node-id="109" x1="620.32" x2="620.32" y1="457.52" y2="229.4"><stop offset="0" stop-color="#0b00ed"></stop><stop offset="0.23" stop-color="#0d00ed"></stop><stop offset="0.34" stop-color="#1500ec"></stop><stop offset="0.44" stop-color="#2300ea"></stop><stop offset="0.52" stop-color="#3600e8"></stop><stop offset="0.59" stop-color="#4e00e4"></stop><stop offset="0.66" stop-color="#6d00e1"></stop><stop offset="0.72" stop-color="#9000dc"></stop><stop offset="0.74" stop-color="#a100da"></stop><stop offset="0.78" stop-color="#9d01d9"></stop><stop offset="0.82" stop-color="#9104d5"></stop><stop offset="0.87" stop-color="#7d09cf"></stop><stop offset="0.91" stop-color="#610fc7"></stop><stop offset="0.95" stop-color="#3c18bc"></stop><stop offset="0.99" stop-color="#1122af"></stop><stop offset="1" stop-color="#0924ad"></stop></linearGradient><linearGradient gradientUnits="userSpaceOnUse" id="未命名的渐变_547-4" node-id="126" x1="515.32" x2="725.45" y1="343.45" y2="343.45"><stop offset="0" stop-color="#a100da"></stop><stop offset="0.04" stop-color="#9b08db"></stop><stop offset="0.11" stop-color="#8b1edd"></stop><stop offset="0.19" stop-color="#7143e0"></stop><stop offset="0.28" stop-color="#4d76e4"></stop><stop offset="0.39" stop-color="#1fb6e9"></stop><stop offset="0.45" stop-color="#00e1ed"></stop><stop offset="0.74" stop-color="#0924ad"></stop><stop offset="0.77" stop-color="#092cb0"></stop><stop offset="0.81" stop-color="#0842b7"></stop><stop offset="0.86" stop-color="#0667c4"></stop><stop offset="0.92" stop-color="#039ad5"></stop><stop offset="0.99" stop-color="#00daeb"></stop><stop offset="1" stop-color="#00e1ed"></stop></linearGradient><linearGradient gradientUnits="userSpaceOnUse" id="未命名的渐变_83-4" node-id="127" x1="643.32" x2="537.47" y1="266.16" y2="449.5"><stop offset="0" stop-color="#00fdf5"></stop><stop offset="0.15" stop-color="#01d2ef"></stop><stop offset="0.58" stop-color="#0562df"></stop><stop offset="0.87" stop-color="#071cd5"></stop><stop offset="1" stop-color="#0800d1"></stop></linearGradient><linearGradient gradientUnits="userSpaceOnUse" id="未命名的渐变_336-4" node-id="128" x1="652.43" x2="528.36" y1="465.28" y2="250.39"><stop offset="0" stop-color="#6adcf8"></stop><stop offset="0.13" stop-color="#4da8e2"></stop><stop offset="0.26" stop-color="#3177cc"></stop><stop offset="0.38" stop-color="#1d53bd"></stop><stop offset="0.48" stop-color="#103db3"></stop><stop offset="0.54" stop-color="#0c35b0"></stop><stop offset="0.61" stop-color="#0f39b1"></stop><stop offset="0.67" stop-color="#1745b5"></stop><stop offset="0.74" stop-color="#2559ba"></stop><stop offset="0.81" stop-color="#3976c3"></stop><stop offset="0.87" stop-color="#529acd"></stop><stop offset="0.94" stop-color="#70c6da"></stop><stop offset="1" stop-color="#92f7e8"></stop></linearGradient><linearGradient gradientUnits="userSpaceOnUse" id="未命名的渐变_382" node-id="129" x1="584.72" x2="584.72" y1="419.03" y2="304.77"><stop offset="0" stop-color="#d3e7fb"></stop><stop offset="1" stop-color="#4e82f9"></stop></linearGradient><linearGradient gradientTransform="matrix(0.9999756307053947 0.0069812602979615525 -0.0069812602979615525 0.9999756307053947 1.17 -11.11)" gradientUnits="userSpaceOnUse" id="未命名的渐变_382-2" node-id="132" x1="587.45" x2="587.45" y1="512.57" y2="634.31"><stop offset="0" stop-color="#d3e7fb"></stop><stop offset="1" stop-color="#4e82f9"></stop></linearGradient><linearGradient gradientUnits="userSpaceOnUse" id="未命名的渐变_382-3" node-id="133" x1="401.24" x2="401.24" y1="407.49" y2="285.74"><stop offset="0" stop-color="#d3e7fb"></stop><stop offset="1" stop-color="#4e82f9"></stop></linearGradient><linearGradient gradientUnits="userSpaceOnUse" id="未命名的渐变_382-4" node-id="134" x1="395.53" x2="395.53" y1="482.83" y2="597.09"><stop offset="0" stop-color="#d3e7fb"></stop><stop offset="1" stop-color="#4e82f9"></stop></linearGradient></defs><g node-id="724"><path d="M 912.00 694.38 L 713.29 807.93 C 691.16 820.58 634.56 825.36 586.87 818.61 L 158.78 758.00 C 111.09 751.24 90.41 735.52 112.54 722.87 L 311.21 609.33 C 333.34 596.68 389.91 591.90 437.60 598.65 L 865.69 659.25 C 913.38 666.00 934.10 681.73 912.00 694.38 Z" fill-opacity="0.31" fill-rule="nonzero" group-id="1" node-id="668" stroke="#00fff2" stroke-linecap="butt" stroke-opacity="0.31" stroke-width="1" target-height="226.04535" target-width="817.0714" target-x="103.7225" target-y="595.6073"></path></g><path d="M 754.84 784.18 L 713.29 807.93 C 691.16 820.58 634.56 825.36 586.87 818.61 L 572.72 816.61" fill="none" node-id="671" stroke="#00ffff" stroke-linecap="butt" stroke-width="1" target-height="37.472656" target-width="182.12006" target-x="572.72" target-y="784.18"></path><path d="M 813.54 651.87 L 865.69 659.25 C 913.38 666.00 934.10 681.73 912.00 694.38 L 881.00 712.09" fill="none" node-id="673" stroke="#00ffff" stroke-linecap="butt" stroke-width="1" target-height="60.22003" target-width="107.25391" target-x="813.54" target-y="651.87"></path><path d="M 210.21 765.79 L 158.71 758.50 C 126.42 753.93 105.19 744.96 103.30 735.10 C 102.71 732.01 103.79 727.31 112.30 722.45 L 186.55 680.00 L 187.04 680.87 L 112.79 723.31 C 106.46 726.92 103.52 730.93 104.28 734.90 C 106.09 744.33 127.00 752.99 158.85 757.50 L 210.36 764.79 Z" fill="#00ffff" fill-rule="nonzero" node-id="675" stroke="none" target-height="85.78998" target-width="107.192" target-x="103.168" target-y="680"></path><path d="M 827.21 631.83 C 827.17 632.29 827.07 632.74 826.92 633.18 C 826.77 633.62 826.58 634.05 826.35 634.45 C 826.11 634.87 825.84 635.27 825.53 635.64 C 825.23 636.05 824.89 636.43 824.53 636.79 C 824.12 637.19 823.68 637.57 823.23 637.92 C 822.76 638.29 822.23 638.66 821.67 639.03 C 821.11 639.40 820.54 639.73 819.91 640.08 L 661.58 727.82 L 661.49 727.82 C 660.79 728.20 660.06 728.58 659.28 728.94 C 658.50 729.30 657.59 729.70 656.68 730.06 C 655.77 730.42 654.68 730.85 653.54 731.22 C 652.28 731.64 650.97 732.05 649.60 732.44 C 647.91 732.91 646.14 733.36 644.31 733.78 C 641.62 734.38 638.76 734.93 635.78 735.41 C 628.49 736.55 621.15 737.29 613.78 737.64 C 611.55 737.75 609.30 737.83 607.03 737.88 C 605.32 737.92 603.60 737.94 601.87 737.94 C 600.35 737.94 598.82 737.94 597.30 737.94 C 595.78 737.94 594.43 737.89 593.00 737.84 C 591.57 737.79 590.18 737.74 588.78 737.67 C 587.38 737.60 585.99 737.52 584.60 737.43 L 580.46 737.13 C 579.09 737.01 577.72 736.89 576.36 736.75 C 575.00 736.61 573.63 736.47 572.27 736.31 C 570.91 736.15 569.55 735.98 568.20 735.80 C 566.85 735.62 565.46 735.41 564.11 735.20 L 564.11 735.20 L 238.72 684.20 C 237.30 683.98 235.92 683.74 234.57 683.50 C 233.22 683.26 231.72 682.97 230.35 682.69 C 228.98 682.41 227.41 682.07 226.00 681.69 C 224.38 681.31 222.83 680.91 221.34 680.50 C 219.46 679.98 217.69 679.44 216.03 678.88 C 204.03 674.88 197.52 669.88 197.63 664.81 L 196.63 708.60 C 196.52 713.60 203.07 718.60 215.03 722.67 C 216.70 723.23 218.47 723.77 220.34 724.29 C 221.83 724.70 223.34 725.10 225.00 725.48 C 226.41 725.82 227.86 726.14 229.36 726.48 C 230.86 726.82 232.13 727.04 233.57 727.30 C 235.01 727.56 236.31 727.77 237.72 727.99 L 563.12 778.99 L 563.12 778.99 C 564.48 779.20 565.84 779.40 567.21 779.59 C 568.58 779.78 569.92 779.94 571.29 780.10 C 572.66 780.26 574.00 780.41 575.37 780.55 C 576.74 780.69 578.10 780.81 579.47 780.92 L 583.61 781.22 C 585.00 781.31 586.40 781.39 587.79 781.46 C 589.18 781.53 590.60 781.59 592.01 781.63 C 593.42 781.67 594.88 781.71 596.31 781.73 C 597.74 781.75 599.31 781.73 600.88 781.73 C 602.61 781.73 604.33 781.73 606.04 781.66 C 608.31 781.61 610.57 781.53 612.79 781.42 C 620.16 781.08 627.50 780.33 634.79 779.19 C 637.79 778.71 640.63 778.19 643.32 777.56 C 645.16 777.14 646.93 776.70 648.61 776.22 C 649.98 775.83 651.30 775.43 652.55 775.00 C 653.64 774.63 654.69 774.25 655.69 773.85 C 656.69 773.45 657.47 773.11 658.30 772.72 C 659.13 772.33 659.80 771.98 660.50 771.60 L 660.60 771.60 L 818.87 683.86 C 819.50 683.52 820.09 683.17 820.63 682.86 C 821.17 682.55 821.72 682.12 822.20 681.75 C 822.65 681.40 823.09 681.02 823.50 680.62 C 823.85 680.26 824.19 679.88 824.50 679.48 C 824.80 679.10 825.08 678.70 825.32 678.28 C 825.55 677.88 825.73 677.45 825.88 677.01 C 826.03 676.57 826.13 676.12 826.17 675.66 C 826.17 675.53 826.17 675.41 826.17 675.28 L 827.17 631.49 C 827.23 631.57 827.22 631.70 827.21 631.83 Z" fill="url(#未命名的渐变_131)" fill-rule="nonzero" node-id="677" stroke="url(#未命名的渐变_144)" stroke-linecap="butt" stroke-width="0.5" target-height="150.23999" target-width="630.58" target-x="196.63" target-y="631.49"></path><path d="M 819.86 640.08 L 661.58 727.82 C 643.95 737.59 600.28 740.90 564.03 735.21 L 238.64 684.21 C 202.39 678.52 187.28 666.00 204.92 656.21 L 363.19 568.48 C 380.83 558.71 424.50 555.39 460.75 561.08 L 786.15 612.08 C 822.40 617.78 837.49 630.31 819.86 640.08 Z" fill="url(#未命名的渐变_169)" fill-rule="nonzero" node-id="679" stroke="url(#未命名的渐变_74)" stroke-linecap="butt" stroke-width="0.5" target-height="179.64813" target-width="629.55225" target-x="197.61282" target-y="558.322"></path><path d="M 821.86 603.18 L 663.58 690.91 C 646.00 700.68 602.28 704.00 566.00 698.31 L 240.61 647.31 C 204.36 641.63 189.25 629.10 206.89 619.31 L 365.16 531.57 C 382.80 521.80 426.47 518.49 462.72 524.17 L 788.12 575.17 C 824.40 580.87 839.49 593.40 821.86 603.18 Z" fill="url(#未命名的渐变_136)" fill-rule="nonzero" node-id="681" stroke="url(#未命名的渐变_92)" stroke-linecap="butt" stroke-width="1" target-height="179.65143" target-width="629.58136" target-x="199.58282" target-y="521.41644"></path><path d="M 819.86 603.18 L 661.58 690.91 C 644.00 700.68 600.28 704.00 564.00 698.31 L 238.61 647.31 C 202.36 641.63 187.25 629.10 204.89 619.31 L 363.16 531.57 C 380.80 521.80 424.47 518.49 460.72 524.17 L 786.12 575.17 C 822.40 580.87 837.49 593.40 819.86 603.18 Z" fill-opacity="0.82" fill-rule="nonzero" group-id="2" node-id="685" stroke="url(#未命名的渐变_347)" stroke-linecap="butt" stroke-opacity="0.82" stroke-width="1" target-height="179.65155" target-width="629.5814" target-x="197.58284" target-y="521.4164"></path><path d="M 532.68 458.37 C 532.66 454.75 532.01 451.17 530.75 447.78 C 530.22 446.32 529.58 444.91 528.85 443.54 C 528.23 442.39 527.54 441.28 526.79 440.21 C 526.08 439.21 525.33 438.24 524.52 437.32 C 523.71 436.41 522.85 435.54 521.94 434.72 C 520.98 433.85 519.96 433.05 518.89 432.31 C 517.60 431.41 516.24 430.63 514.82 429.96 C 512.52 428.87 510.06 428.14 507.54 427.77 L 384.68 410.50 C 383.33 410.32 381.96 410.26 380.60 410.32 C 380.18 410.32 379.78 410.40 379.37 410.44 C 378.48 410.52 377.59 410.66 376.71 410.85 C 376.50 410.85 376.27 410.85 376.07 410.95 C 375.87 411.05 375.64 411.12 375.41 411.19 C 374.54 411.45 373.68 411.77 372.85 412.14 C 372.61 412.25 372.34 412.30 372.10 412.41 C 371.86 412.52 371.58 412.67 371.33 412.81 L 323.16 439.00 C 323.65 438.74 324.16 438.55 324.69 438.33 C 325.52 437.96 326.38 437.64 327.25 437.38 C 327.67 437.26 328.10 437.14 328.54 437.04 C 329.42 436.85 330.31 436.72 331.20 436.63 C 331.61 436.63 332.02 436.53 332.44 436.52 C 333.80 436.45 335.16 436.51 336.51 436.70 L 459.38 454.00 C 461.90 454.37 464.35 455.10 466.65 456.19 C 468.07 456.86 469.44 457.65 470.73 458.54 C 471.78 459.28 472.78 460.08 473.73 460.95 C 475.55 462.59 477.17 464.43 478.58 466.44 C 479.33 467.51 480.02 468.62 480.64 469.77 C 481.37 471.14 482.01 472.56 482.55 474.01 C 483.80 477.40 484.45 480.99 484.47 484.60 L 484.72 617.18 C 484.72 626.78 480.06 634.60 473.03 638.42 L 521.20 612.22 C 528.20 608.40 532.90 600.58 532.88 590.98 Z" fill="url(#未命名的渐变_96)" fill-opacity="0.82" fill-rule="nonzero" group-id="3" node-id="690" stroke="url(#未命名的渐变_547)" stroke-linecap="butt" stroke-opacity="0.82" stroke-width="0.5" target-height="228.09998" target-width="209.72" target-x="323.16" target-y="410.32"></path><path d="M 336.51 436.71 C 322.72 434.77 311.45 445.36 311.51 460.25 L 311.76 592.84 C 311.76 607.73 323.09 621.49 336.89 623.43 L 459.72 640.70 C 473.52 642.64 484.78 632.04 484.72 617.15 L 484.47 484.57 C 484.47 469.68 473.13 455.91 459.34 453.97 Z" fill="url(#未命名的渐变_83)" fill-rule="nonzero" node-id="693" stroke="url(#未命名的渐变_336)" stroke-linecap="butt" stroke-width="0.5" target-height="204.43695" target-width="173.20999" target-x="311.51" target-y="436.48645"></path><path d="M 532.29 250.42 C 532.27 246.81 531.62 243.22 530.37 239.83 C 529.37 237.14 528.03 234.60 526.37 232.26 C 525.67 231.25 524.91 230.29 524.10 229.38 C 523.29 228.46 522.43 227.59 521.52 226.77 C 520.57 225.90 519.57 225.10 518.52 224.36 C 517.23 223.47 515.86 222.68 514.44 222.01 C 512.14 220.92 509.69 220.18 507.17 219.82 L 384.29 202.56 C 379.71 201.86 375.02 202.67 370.94 204.86 L 322.78 231.07 C 326.86 228.87 331.55 228.06 336.13 228.76 L 459.00 246.00 C 461.52 246.36 463.98 247.09 466.28 248.18 C 467.70 248.86 469.06 249.64 470.35 250.53 C 471.42 251.27 472.44 252.08 473.40 252.95 C 474.31 253.77 475.16 254.63 475.97 255.55 C 476.78 256.47 477.54 257.43 478.25 258.43 C 479.00 259.50 479.68 260.62 480.30 261.77 C 481.03 263.13 481.67 264.55 482.20 266.00 C 483.46 269.39 484.11 272.97 484.12 276.59 L 484.37 409.17 C 484.37 418.78 479.71 426.59 472.69 430.41 L 520.85 404.21 C 525.36 401.71 528.84 397.71 530.70 392.90 C 531.94 389.74 532.56 386.37 532.54 382.97 Z" fill="url(#未命名的渐变_96-2)" fill-opacity="0.82" fill-rule="nonzero" group-id="4" node-id="697" stroke="url(#未命名的渐变_547-2)" stroke-linecap="butt" stroke-opacity="0.82" stroke-width="0.5" target-height="228.0918" target-width="209.75998" target-x="322.78" target-y="202.3182"></path><path d="M 336.13 228.76 C 322.33 226.82 311.07 237.41 311.13 252.30 L 311.38 384.89 C 311.38 399.78 322.72 413.54 336.51 415.48 L 459.38 432.75 C 473.17 434.69 484.44 424.09 484.38 409.20 L 484.13 276.62 C 484.10 261.73 472.79 248.00 459.00 246.00 Z" fill="url(#未命名的渐变_83-2)" fill-rule="nonzero" node-id="700" stroke="url(#未命名的渐变_336-2)" stroke-linecap="butt" stroke-width="0.5" target-height="204.43698" target-width="173.25" target-x="311.13" target-y="228.5364"></path><path d="M 529.18 463.78 L 652.00 481.05 C 654.52 481.42 656.98 482.15 659.28 483.24 C 660.70 483.91 662.06 484.69 663.35 485.59 C 664.42 486.33 665.44 487.13 666.40 488.00 C 667.30 488.82 668.17 489.69 668.98 490.60 C 669.79 491.52 670.54 492.49 671.25 493.49 C 672.00 494.56 672.68 495.67 673.30 496.82 C 674.04 498.19 674.68 499.60 675.21 501.06 C 676.47 504.45 677.12 508.03 677.13 511.65 L 677.38 644.23 C 677.38 653.83 672.72 661.65 665.70 665.47 L 713.87 639.27 C 720.87 635.45 725.57 627.63 725.55 618.03 L 725.30 485.44 C 725.28 481.83 724.63 478.25 723.38 474.86 C 722.84 473.40 722.20 471.99 721.47 470.62 C 720.87 469.47 720.20 468.36 719.47 467.29 C 718.76 466.29 718.00 465.32 717.19 464.40 C 716.38 463.48 715.53 462.62 714.62 461.80 C 713.66 460.93 712.64 460.13 711.57 459.39 C 710.28 458.49 708.91 457.71 707.49 457.04 C 705.19 455.95 702.74 455.21 700.22 454.85 L 577.34 437.58 L 577.34 437.58 C 574.47 437.16 571.54 437.31 568.73 438.02 C 567.35 438.37 566.01 438.87 564.73 439.49 L 563.96 439.89 L 515.80 466.09 C 516.05 465.95 516.31 465.82 516.57 465.69 C 517.85 465.07 519.19 464.58 520.57 464.23 C 523.38 463.52 526.31 463.37 529.18 463.78 L 529.18 463.78" fill="url(#未命名的渐变_96-3)" fill-opacity="0.82" fill-rule="nonzero" group-id="5" node-id="704" stroke="url(#未命名的渐变_547-3)" stroke-linecap="butt" stroke-opacity="0.82" stroke-width="0.5" target-height="228.11826" target-width="209.75" target-x="515.8" target-y="437.3517"></path><path d="M 529.18 463.78 C 515.38 461.84 504.12 472.44 504.18 487.33 L 504.42 619.91 C 504.42 634.80 515.76 648.57 529.55 650.51 L 652.42 667.78 C 666.22 669.71 677.48 659.12 677.42 644.23 L 677.17 511.65 C 677.17 496.76 665.84 482.99 652.04 481.05 L 529.18 463.78" fill="url(#未命名的渐变_83-3)" fill-rule="nonzero" node-id="707" stroke="url(#未命名的渐变_336-3)" stroke-linecap="butt" stroke-width="0.5" target-height="204.44467" target-width="173.23999" target-x="504.18" target-y="463.5566"></path><path d="M 725.00 277.50 C 724.95 272.32 723.64 267.23 721.17 262.67 C 720.57 261.52 719.90 260.41 719.17 259.34 C 718.46 258.34 717.71 257.37 716.90 256.45 C 716.09 255.54 715.23 254.67 714.32 253.85 C 713.36 252.98 712.34 252.18 711.27 251.44 C 709.98 250.54 708.62 249.76 707.20 249.09 C 704.90 248.00 702.44 247.27 699.92 246.90 L 577.00 229.63 C 572.42 228.94 567.73 229.75 563.65 231.94 L 515.48 258.14 C 519.56 255.95 524.25 255.14 528.83 255.84 L 651.66 273.10 C 654.18 273.47 656.63 274.20 658.93 275.29 C 660.35 275.96 661.72 276.75 663.01 277.64 C 664.06 278.38 665.06 279.19 666.01 280.05 C 666.92 280.87 667.78 281.74 668.59 282.65 C 669.40 283.57 670.16 284.53 670.86 285.54 C 671.61 286.61 672.30 287.72 672.92 288.87 C 673.65 290.24 674.29 291.65 674.82 293.11 C 676.08 296.50 676.73 300.08 676.75 303.70 L 677.00 436.28 C 677.00 445.88 672.35 453.70 665.32 457.52 L 713.49 431.32 C 720.49 427.50 725.19 419.68 725.17 410.08 Z" fill="url(#未命名的渐变_114)" fill-opacity="0.82" fill-rule="nonzero" group-id="6" node-id="711" stroke="url(#未命名的渐变_547-4)" stroke-linecap="butt" stroke-opacity="0.82" stroke-width="0.5" target-height="228.12943" target-width="209.69" target-x="515.48" target-y="229.39056"></path><path d="M 528.79 255.83 C 514.99 253.90 503.73 264.49 503.79 279.38 L 504.00 412.00 C 504.00 426.89 515.33 440.66 529.13 442.60 L 652.00 459.83 C 665.80 461.77 677.06 451.17 677.00 436.28 L 676.76 303.70 C 676.76 288.81 665.42 275.04 651.63 273.10 Z" fill="url(#未命名的渐变_83-4)" fill-rule="nonzero" node-id="714" stroke="url(#未命名的渐变_336-4)" stroke-linecap="butt" stroke-width="0.5" target-height="204.44461" target-width="173.20999" target-x="503.79" target-y="255.60873"></path><path d="M 584.56 305.26 C 570.85 303.33 557.15 307.05 546.70 316.86 C 528.85 333.68 530.43 392.14 532.26 407.74 C 532.54 410.17 534.23 412.20 536.56 412.94 C 543.38 414.69 550.30 416.02 557.28 416.94 C 579.21 420.03 609.97 421.15 622.63 409.24 C 643.50 389.61 643.43 353.01 622.48 327.48 C 612.00 314.75 598.27 307.19 584.56 305.26 Z" fill="url(#未命名的渐变_382)" fill-rule="nonzero" node-id="716" stroke="none" target-height="114.19678" target-width="106.94812" target-x="531.2237" target-y="304.7978"></path><path d="M 557.38 507.10 C 550.56 506.03 543.68 505.39 536.78 505.17 C 534.51 505.15 532.62 506.91 532.47 509.17 C 530.56 524.22 528.81 582.28 546.61 604.23 C 556.99 617.07 570.61 624.74 584.35 626.76 C 598.09 628.78 611.77 625.15 622.28 615.40 C 643.28 595.92 643.46 559.32 622.69 533.64 C 610.09 518.07 579.29 510.34 557.38 507.10 Z" fill="url(#未命名的渐变_382-2)" fill-rule="nonzero" node-id="718" stroke="none" target-height="122.086395" target-width="106.76422" target-x="531.3314" target-y="505.17"></path><path d="M 401.13 286.23 C 387.43 284.30 373.72 288.03 363.28 297.85 C 342.41 317.48 342.48 354.08 363.43 379.61 C 376.16 395.09 407.00 402.61 428.94 405.69 C 435.77 406.71 442.66 407.31 449.56 407.49 C 451.80 407.46 453.65 405.73 453.82 403.49 C 455.62 388.40 456.98 330.35 439.03 308.49 C 428.56 295.73 414.84 288.16 401.13 286.23 Z" fill="url(#未命名的渐变_382-3)" fill-rule="nonzero" node-id="720" stroke="none" target-height="121.72162" target-width="107.05151" target-x="347.73828" target-y="285.76837"></path><path d="M 423.00 484.89 C 401.07 481.81 370.31 480.68 357.66 492.60 C 336.80 512.22 336.87 548.82 357.82 574.36 C 368.30 587.11 382.03 594.68 395.73 596.60 C 409.43 598.52 423.14 594.81 433.57 585.00 C 451.45 568.18 449.87 509.73 448.01 494.12 C 447.74 491.69 446.05 489.64 443.71 488.92 C 436.89 487.16 429.98 485.81 423.00 484.89 Z" fill="url(#未命名的渐变_382-4)" fill-rule="nonzero" node-id="722" stroke="none" target-height="114.21896" target-width="106.939545" target-x="342.12674" target-y="482.84042"></path></svg>